<svg id="Layer_1" data-name="Layer 1" xmlns="http://www.w3.org/2000/svg" viewBox="0 0 802.05 640.94"><defs><style>.cls-1{fill:#fff;}.cls-2{fill:#82c600;}</style></defs><title>CDKlogo2</title><g id="Page-1"><g id="Artboard-1"><g id="inverse"><path id="Shape" class="cls-1" d="M943.78,392.59V380.65h-.08l-4.33,11.94h-2.82l-4.33-11.94h-.09v11.94h-3.92V375.75h5.56L938,386.82l4.21-11.07h5.52v16.84ZM921.26,379v13.57H917.1V379h-4.79v-3.27H926V379Z" transform="translate(-190.56 -59.49)"/><path id="Shape-2" data-name="Shape" class="cls-1" d="M490.2,84.7q-11.64-8.11-27.63-8.12-13.67,0-23.37,5.13a46.19,46.19,0,0,0-16,13.77,59.61,59.61,0,0,0-9.28,19.75,88.54,88.54,0,0,0-3,23.06,98.88,98.88,0,0,0,3,24.66,59,59,0,0,0,9.28,20.28A45.79,45.79,0,0,0,439.3,197q9.82,5.13,23.48,5.13a45.16,45.16,0,0,0,17.82-3.31A40.07,40.07,0,0,0,494,189.64a42.07,42.07,0,0,0,8.86-14,58,58,0,0,0,3.84-17.51H527Q524,187,507.17,203t-46.1,16q-17.71,0-30.95-6.09a60.73,60.73,0,0,1-22-16.76A72,72,0,0,1,395,171a107.42,107.42,0,0,1-4.38-31.17,101.72,101.72,0,0,1,4.69-31.28A75.37,75.37,0,0,1,409.1,83a64.28,64.28,0,0,1,22.62-17.19q13.56-6.29,31.06-6.3a78.52,78.52,0,0,1,22.62,3.2,61.12,61.12,0,0,1,19,9.4,53,53,0,0,1,13.87,15.48A56.72,56.72,0,0,1,525.52,109H505.25Q501.83,92.82,490.2,84.7" transform="translate(-190.56 -59.49)"/><path id="Shape-3" data-name="Shape" class="cls-1" d="M595.06,198.5q3.42,0,8.54-.53a47.72,47.72,0,0,0,10.88-2.57,49.76,49.76,0,0,0,11.42-5.87A38.72,38.72,0,0,0,636,179.07a58.69,58.69,0,0,0,7.36-16.55q2.88-9.93,2.88-24a102.58,102.58,0,0,0-2.66-24.45,46.94,46.94,0,0,0-8.76-18.36,38.47,38.47,0,0,0-15.68-11.53q-9.6-3.94-23.69-4H561.34V198.5Zm-1.7-135.37q35.21,0,54.21,17.93t19,54.67q0,19.22-4.27,34.05a63.62,63.62,0,0,1-13.24,25,57.22,57.22,0,0,1-22.83,15.49q-13.89,5.34-32.87,5.33H541.07V63.13Z" transform="translate(-190.56 -59.49)"/><path id="Shape-4" data-name="Shape" class="cls-1" d="M701.55,63.13v76l77.26-76h26.26l-64.24,61.49,66.79,91H782L727,138.5l-25.4,23.7v53.38H681.28V63.13Z" transform="translate(-190.56 -59.49)"/><path id="Shape-5" data-name="Shape" class="cls-1" d="M390.64,317.3a98.36,98.36,0,0,1,4.79-30.81,78.17,78.17,0,0,1,14-25.68,66.8,66.8,0,0,1,22.47-17.59q13.32-6.5,30.58-6.5a73,73,0,0,1,22.37,3.41,59.61,59.61,0,0,1,33.24,26,57.8,57.8,0,0,1,7.67,21.32h-9q-5.34-20-19.18-31.34t-34.94-11.29q-15.34,0-27.06,6a58.1,58.1,0,0,0-19.6,16,70.68,70.68,0,0,0-11.94,23.12,96,96,0,0,0-.1,54.79,65.81,65.81,0,0,0,11.72,22.49,55.75,55.75,0,0,0,19.5,15.23q11.71,5.65,27.48,5.65a63.77,63.77,0,0,0,24.51-4.48A51.73,51.73,0,0,0,505.59,371,53,53,0,0,0,517,351.51,69.65,69.65,0,0,0,520.18,326h-56v-8.1h64.13v74.61h-8.09v-32.4h-.43a46.55,46.55,0,0,1-8.31,15,51.62,51.62,0,0,1-13.11,11.31,66.27,66.27,0,0,1-16.83,7.13,72.38,72.38,0,0,1-19.28,2.56q-17.26,0-30.58-6.19a65.59,65.59,0,0,1-22.48-16.84,72.39,72.39,0,0,1-13.85-25.05,98.86,98.86,0,0,1-4.68-30.78" transform="translate(-190.56 -59.49)"/><rect id="Rectangle-path" class="cls-1" x="356.64" y="179.46" width="8.1" height="152.21"/><path id="Shape-6" data-name="Shape" class="cls-1" d="M574.34,337.77a64.38,64.38,0,0,0,2.77,18.86,51,51,0,0,0,8.1,16.1,39.35,39.35,0,0,0,13.21,11.19,41.5,41.5,0,0,0,36.22,0,39.45,39.45,0,0,0,13.21-11.19,51.22,51.22,0,0,0,8.1-16.1,65.85,65.85,0,0,0,0-37.73,51.38,51.38,0,0,0-8.1-16.09,39.45,39.45,0,0,0-13.21-11.19,41.5,41.5,0,0,0-36.22,0,39.35,39.35,0,0,0-13.21,11.19,51.17,51.17,0,0,0-8.1,16.09,64.45,64.45,0,0,0-2.77,18.87m-8.09,0a72,72,0,0,1,3.3-22.07,55.39,55.39,0,0,1,9.7-18.23A46.25,46.25,0,0,1,595,285a52.87,52.87,0,0,1,43,0,46.38,46.38,0,0,1,15.77,12.47,55.45,55.45,0,0,1,9.69,18.23,72.21,72.21,0,0,1,3.3,22.07,73.23,73.23,0,0,1-3.3,22.17,54,54,0,0,1-9.69,18.22,46.84,46.84,0,0,1-15.77,12.37,52.77,52.77,0,0,1-43,0,46.59,46.59,0,0,1-15.76-12.37,53.79,53.79,0,0,1-9.7-18.22,72.92,72.92,0,0,1-3.3-22.17" transform="translate(-190.56 -59.49)"/><path id="Shape-7" data-name="Shape" class="cls-1" d="M728.56,388.07c7.27,0,13.38-1.56,18.37-4.69a37.91,37.91,0,0,0,12.18-12.25,55.26,55.26,0,0,0,6.83-17.06,85.27,85.27,0,0,0,2.14-18.87,63.52,63.52,0,0,0-2.46-17.69,46.83,46.83,0,0,0-7.48-15.24,38.32,38.32,0,0,0-12.38-10.76,35.18,35.18,0,0,0-17.2-4.06A44.39,44.39,0,0,0,710,291.07a35.38,35.38,0,0,0-13,10,43.73,43.73,0,0,0-7.69,15.14,67.09,67.09,0,0,0-2.56,19A81.9,81.9,0,0,0,689,354.81a51.41,51.41,0,0,0,7.37,16.95,38.12,38.12,0,0,0,12.92,11.83q7.9,4.49,19.23,4.48Zm-50-147.72h7.88v65.86h.43A34.48,34.48,0,0,1,693.53,295a41.41,41.41,0,0,1,9.82-8.09,43.94,43.94,0,0,1,12-4.91,54.18,54.18,0,0,1,13.24-1.6q12.18,0,21,4.27a42.19,42.19,0,0,1,14.84,11.72,49.6,49.6,0,0,1,8.87,17.37,76.5,76.5,0,0,1,2.88,21.42q0,19.62-5.34,31.45T758,384.76a38.85,38.85,0,0,1-15.6,8.32,58.64,58.64,0,0,1-13.88,2q-10.9,0-18.48-3.4a45.53,45.53,0,0,1-12.49-8,39.32,39.32,0,0,1-7.48-9.07,36.3,36.3,0,0,1-3.2-6.6h-.42v24.51h-7.89V240.35Z" transform="translate(-190.56 -59.49)"/><path id="Shape-8" data-name="Shape" class="cls-1" d="M862.45,330.3q-3,3.63-9.06,4.91a114.05,114.05,0,0,1-13.53,1.92l-13.64,1.28q-6,.63-11.93,1.81a34.51,34.51,0,0,0-10.76,3.94,22,22,0,0,0-7.78,7.57q-3,4.78-3,12.47,0,12.15,7.67,18t21.09,5.86q13.86,0,22-5a39,39,0,0,0,12.37-11.5A35.62,35.62,0,0,0,861.28,359a55.23,55.23,0,0,0,1.17-8.22V330.3Zm0,40.51H862a33.87,33.87,0,0,1-5.54,9.27,39.41,39.41,0,0,1-8.85,7.78,43.66,43.66,0,0,1-11.82,5.33,51.83,51.83,0,0,1-14.49,1.92q-17.48,0-27.06-7.57t-9.59-23.34q0-9.58,3.83-15.66a29,29,0,0,1,9.7-9.6,41.86,41.86,0,0,1,13-5,129,129,0,0,1,13.74-2.13l12.58-1.07a73.24,73.24,0,0,0,13.74-2,17.67,17.67,0,0,0,7.56-3.83,10.9,10.9,0,0,0,3.19-6.29,59.49,59.49,0,0,0,.64-9.59,20.36,20.36,0,0,0-1.7-8.32,18.69,18.69,0,0,0-5.33-6.82,26.46,26.46,0,0,0-9.37-4.69,50.41,50.41,0,0,0-14.07-1.7q-14.7,0-23.76,7.24t-9.91,22h-8.09q.84-18.12,11.61-27.18t30.57-9.06q19.81,0,28.87,7.78t9.06,20.36v63.74c0,1.57,0,3.13.11,4.69a16,16,0,0,0,.75,4.27,6.4,6.4,0,0,0,2.13,3.09,6.73,6.73,0,0,0,4.26,1.17,38.47,38.47,0,0,0,6-.64v6.82a25.5,25.5,0,0,1-6.61.86,19.45,19.45,0,0,1-7.77-1.28,10.19,10.19,0,0,1-4.37-3.41,12.76,12.76,0,0,1-2-5,35.06,35.06,0,0,1-.53-6.29v-5.77Z" transform="translate(-190.56 -59.49)"/><rect id="Rectangle-path-2" data-name="Rectangle-path" class="cls-1" x="703.55" y="179.46" width="8.1" height="152.2"/><g id="Group"><path id="Shape-9" data-name="Shape" class="cls-1" d="M350.24,139.24a79.72,79.72,0,1,1-79.71-79.75,79.73,79.73,0,0,1,79.71,79.75" transform="translate(-190.56 -59.49)"/><path id="Shape-10" data-name="Shape" class="cls-1" d="M350.24,316.43a79.72,79.72,0,1,1-79.71-79.76,79.73,79.73,0,0,1,79.71,79.76" transform="translate(-190.56 -59.49)"/><path id="Shape-11" data-name="Shape" class="cls-2" d="M270.22,413.24c-44,0-79.66,35.84-79.66,80.06s35.67,80.07,79.66,80.07,79.66-35.85,79.66-80.07-35.66-80.06-79.66-80.06" transform="translate(-190.56 -59.49)"/></g></g></g></g><path class="cls-1" d="M209.31,659.42l-7,21.21h-9l22.9-67.41h10.5l23,67.41h-9.3l-7.21-21.21Zm22.1-6.8-6.6-19.4c-1.5-4.4-2.5-8.4-3.5-12.3h-.2c-1,4-2.1,8.1-3.4,12.2l-6.6,19.5Z" transform="translate(-190.56 -59.49)"/><path class="cls-1" d="M259,648c0-6.2-.2-11.2-.4-15.8h7.9l.4,8.3h.2c3.6-5.9,9.3-9.4,17.2-9.4,11.71,0,20.51,9.9,20.51,24.6,0,17.41-10.6,26-22,26-6.4,0-12-2.79-14.9-7.59h-.2v26.3H259Zm8.7,12.9a19.82,19.82,0,0,0,.4,3.6,13.58,13.58,0,0,0,13.2,10.3c9.31,0,14.71-7.6,14.71-18.7,0-9.7-5.1-18-14.41-18a14,14,0,0,0-13.3,10.9,14.27,14.27,0,0,0-.6,3.6Z" transform="translate(-190.56 -59.49)"/><path class="cls-1" d="M315.91,648c0-6.2-.2-11.2-.4-15.8h7.9l.4,8.3h.2c3.6-5.9,9.3-9.4,17.2-9.4,11.7,0,20.5,9.9,20.5,24.6,0,17.41-10.6,26-22,26-6.4,0-12-2.79-14.9-7.59h-.2v26.3h-8.7Zm8.7,12.9a19.82,19.82,0,0,0,.4,3.6,13.58,13.58,0,0,0,13.2,10.3c9.3,0,14.7-7.6,14.7-18.7,0-9.7-5.1-18-14.4-18a14,14,0,0,0-13.3,10.9,14.27,14.27,0,0,0-.6,3.6Z" transform="translate(-190.56 -59.49)"/><path class="cls-1" d="M372.81,647.32c0-5.7-.1-10.6-.4-15.1h7.7l.3,9.5h.4c2.2-6.5,7.5-10.6,13.4-10.6a9.52,9.52,0,0,1,2.5.3v8.3a13.22,13.22,0,0,0-3-.3c-6.2,0-10.6,4.7-11.8,11.3a24.77,24.77,0,0,0-.4,4.1v25.81h-8.7Z" transform="translate(-190.56 -59.49)"/><path class="cls-1" d="M448.31,656c0,17.91-12.4,25.7-24.1,25.7-13.1,0-23.2-9.6-23.2-24.9,0-16.2,10.6-25.7,24-25.7C438.91,631.12,448.31,641.22,448.31,656Zm-38.4.5c0,10.6,6.1,18.61,14.7,18.61,8.4,0,14.7-7.91,14.7-18.81,0-8.2-4.1-18.6-14.5-18.6S409.91,647.32,409.91,656.52Z" transform="translate(-190.56 -59.49)"/><path class="cls-1" d="M462.11,632.22l9.5,27.2a124.47,124.47,0,0,1,3.9,12.4h.3c1.1-4,2.5-8,4.1-12.4l9.4-27.2h9.2l-19,48.41h-8.4l-18.4-48.41Z" transform="translate(-190.56 -59.49)"/><path class="cls-1" d="M510.71,658c.2,11.91,7.8,16.8,16.6,16.8a31.82,31.82,0,0,0,13.4-2.5l1.5,6.31c-3.1,1.4-8.4,3-16.1,3-14.9,0-23.8-9.81-23.8-24.41s8.6-26.1,22.7-26.1c15.8,0,20,13.9,20,22.8a33.19,33.19,0,0,1-.3,4.1Zm25.8-6.3c.1-5.6-2.3-14.3-12.2-14.3-8.9,0-12.8,8.2-13.5,14.3Z" transform="translate(-190.56 -59.49)"/><path class="cls-1" d="M597.71,609.62v58.5c0,4.31.1,9.21.4,12.51h-7.9l-.4-8.41h-.2c-2.7,5.41-8.6,9.5-16.5,9.5-11.7,0-20.7-9.9-20.7-24.6-.1-16.1,9.9-26,21.7-26,7.4,0,12.4,3.5,14.6,7.4h.2v-28.9Zm-8.8,42.3a15.53,15.53,0,0,0-.4-3.7,12.94,12.94,0,0,0-12.7-10.2c-9.1,0-14.5,8-14.5,18.7,0,9.8,4.8,17.91,14.3,17.91a13.24,13.24,0,0,0,12.9-10.51,15.29,15.29,0,0,0,.4-3.8Z" transform="translate(-190.56 -59.49)"/><path class="cls-1" d="M642.51,613.22v67.41h-8.7V613.22Z" transform="translate(-190.56 -59.49)"/><path class="cls-1" d="M658.41,645.32c0-5-.1-9.1-.4-13.1h7.8l.5,8h.2a17.8,17.8,0,0,1,16-9.1c6.7,0,17.1,4,17.1,20.6v28.91h-8.8V652.72c0-7.8-2.9-14.3-11.2-14.3a12.5,12.5,0,0,0-11.8,9,12.65,12.65,0,0,0-.6,4.1v29.11h-8.8Z" transform="translate(-190.56 -59.49)"/><path class="cls-1" d="M724.11,618.32v13.9h12.6v6.7h-12.6V665c0,6,1.7,9.41,6.6,9.41a19.06,19.06,0,0,0,5.1-.61l.4,6.61a21.54,21.54,0,0,1-7.8,1.2c-4.1,0-7.4-1.3-9.5-3.7-2.5-2.61-3.4-6.91-3.4-12.61v-26.4H708v-6.7h7.5v-11.6Z" transform="translate(-190.56 -59.49)"/><path class="cls-1" d="M750.91,658c.2,11.91,7.8,16.8,16.6,16.8a31.82,31.82,0,0,0,13.4-2.5l1.5,6.31c-3.1,1.4-8.4,3-16.1,3-14.9,0-23.8-9.81-23.8-24.41s8.6-26.1,22.7-26.1c15.8,0,20,13.9,20,22.8a33.19,33.19,0,0,1-.3,4.1Zm25.8-6.3c.1-5.6-2.3-14.3-12.2-14.3-8.9,0-12.8,8.2-13.5,14.3Z" transform="translate(-190.56 -59.49)"/><path class="cls-1" d="M796.11,647.32c0-5.7-.1-10.6-.4-15.1h7.7l.3,9.5h.4c2.2-6.5,7.5-10.6,13.4-10.6a9.52,9.52,0,0,1,2.5.3v8.3a13.22,13.22,0,0,0-3-.3c-6.2,0-10.6,4.7-11.8,11.3a24.77,24.77,0,0,0-.4,4.1v25.81h-8.7Z" transform="translate(-190.56 -59.49)"/><path class="cls-1" d="M832.71,680.63V638.92h-6.8v-6.7h6.8v-2.3c0-6.8,1.5-13,5.6-16.9a16.84,16.84,0,0,1,11.8-4.5,20.41,20.41,0,0,1,7.5,1.4l-1.2,6.8a13.14,13.14,0,0,0-5.6-1.1c-7.5,0-9.4,6.6-9.4,14v2.6h11.7v6.7h-11.7v41.71Z" transform="translate(-190.56 -59.49)"/><path class="cls-1" d="M887.81,680.63l-.7-6.11h-.3a18,18,0,0,1-14.8,7.2c-9.8,0-14.8-6.9-14.8-13.9,0-11.7,10.4-18.1,29.1-18v-1c0-4-1.1-11.2-11-11.2a24.11,24.11,0,0,0-12.6,3.6l-2-5.8a30,30,0,0,1,15.9-4.3c14.8,0,18.4,10.1,18.4,19.8V669a68.27,68.27,0,0,0,.8,11.61Zm-1.3-24.71c-9.6-.2-20.5,1.5-20.5,10.9,0,5.7,3.8,8.4,8.3,8.4a12,12,0,0,0,11.7-8.1,9.18,9.18,0,0,0,.5-2.8Z" transform="translate(-190.56 -59.49)"/><path class="cls-1" d="M943.71,678.83a32.41,32.41,0,0,1-13.9,2.8c-14.6,0-24.11-9.91-24.11-24.71s10.21-25.7,26-25.7a29.42,29.42,0,0,1,12.2,2.5l-2,6.8a20.41,20.41,0,0,0-10.2-2.3c-11.1,0-17.1,8.2-17.1,18.3,0,11.2,7.2,18.11,16.8,18.11a25,25,0,0,0,10.8-2.41Z" transform="translate(-190.56 -59.49)"/><path class="cls-1" d="M958.31,658c.19,11.91,7.8,16.8,16.6,16.8a31.82,31.82,0,0,0,13.4-2.5l1.5,6.31c-3.1,1.4-8.4,3-16.1,3-14.9,0-23.81-9.81-23.81-24.41s8.6-26.1,22.71-26.1c15.8,0,20,13.9,20,22.8a33.19,33.19,0,0,1-.3,4.1Zm25.8-6.3c.1-5.6-2.3-14.3-12.2-14.3-8.9,0-12.8,8.2-13.5,14.3Z" transform="translate(-190.56 -59.49)"/></svg>