<?xml version="1.0" encoding="utf-8"?>
<!-- Generator: Adobe Illustrator 22.1.0, SVG Export Plug-In . SVG Version: 6.00 Build 0)  -->
<svg version="1.1" id="Layer_1" xmlns="http://www.w3.org/2000/svg" xmlns:xlink="http://www.w3.org/1999/xlink" x="0px" y="0px"
	 viewBox="0 0 943.7 329.3" style="enable-background:new 0 0 943.7 329.3;" xml:space="preserve">
<style type="text/css">
	.st0{fill:#006E96;}
	.st1{fill:#417DA6;}
	.st2{fill:#FFFFFF;}
	.st3{fill:#F9F9F9;}
</style>
<title>cph-logo-main</title>
<path class="st0" d="M535,0H209.5C118.8,0,26.7,74,4.8,164.7s34,164.7,125.4,164.7h90.6l24.2-99h-90.7c-36.3,0-58.9-29.5-49.8-66.5
	c10.2-37.6,43.4-64.4,82.3-66.4h108l-58.1,230.4h97.4L390,97.4h121.6c7.9-0.4,14.7,5.8,15.1,13.7c0.1,1.8-0.2,3.5-0.7,5.2
	c-2.6,10.6-11.8,18.3-22.6,18.9H397.5l-25.7,99h106.5c65,0,129.9-52.9,145.8-117.1S600,0,535,0"/>
<path class="st1" d="M610.5,114.1c7.4-24.8,2.6-51.7-12.8-72.5c-7.8-10-18.3-17.6-30.2-21.9l-51.4,194.9
	C562.4,198.9,597.8,161.2,610.5,114.1z"/>
<path class="st2" d="M816.8,3L782,136.7H667.2L701.9,3H598.5c9.3,6,17.7,13.4,24.9,21.9c20.6,27.4,27.3,62.9,18.1,95.9
	c-17,62.1-66.5,109.9-129.2,124.6L491.2,327h126.1l27.2-105h114.8l-27.2,105h126.1L943.6,3L816.8,3z"/>
<path class="st3" d="M535,0H209.5C118.8,0,26.7,74,4.8,164.7s34,164.7,125.4,164.7h90.6l24.2-99h-90.7c-36.3,0-58.9-29.5-49.8-66.5
	c10.2-37.6,43.4-64.4,82.3-66.4h108l-58.1,230.4h97.4L390,97.4h121.6c7.9-0.4,14.7,5.8,15.1,13.7c0.1,1.8-0.2,3.5-0.7,5.2
	c-2.6,10.6-11.8,18.3-22.6,18.9H397.5l-25.7,99h106.5c65,0,129.9-52.9,145.8-117.1S600,0,535,0"/>
</svg>
