<svg xmlns="http://www.w3.org/2000/svg" viewBox="0 0 97.95 98.01"><defs><style>.cls-1{fill:#1671bd;}</style></defs><title>Asset 1</title><g id="Layer_2" data-name="Layer 2"><g id="Layer_1-2" data-name="Layer 1"><path class="cls-1" d="M1.08,77.61a7.63,7.63,0,0,1-.69-6.32A146.42,146.42,0,0,0,5.9,49.4a7.62,7.62,0,0,1,8.81-6.21,6.82,6.82,0,0,1,1.1.28l2.61.84a9.5,9.5,0,0,1,0-4.62,9.67,9.67,0,0,1,19,2.29A9.53,9.53,0,0,1,35,48.49c3,.57,5.86,1,8.65,1.39A2.49,2.49,0,1,1,43,54.82c-3.61-.46-7.38-1.1-11.22-1.89a2.62,2.62,0,0,1-.91-.39,4.11,4.11,0,0,1-1.63-4.33l.08-.33a4.14,4.14,0,0,1,1.43-2.2A4.56,4.56,0,0,0,32.5,42a4.69,4.69,0,1,0-9,1.84,4.06,4.06,0,0,1,.22,2.62l-.08.33a4.08,4.08,0,0,1-3.49,3,2.83,2.83,0,0,1-1-.09c-1.67-.5-3.32-1-4.91-1.55a2.62,2.62,0,0,0-2.2.24,2.56,2.56,0,0,0-1.24,1.8A150.83,150.83,0,0,1,5.09,72.8a2.65,2.65,0,0,0,1.67,3.34l.33.09A150.11,150.11,0,0,1,35.57,84a2.49,2.49,0,1,1-1.69,4.68l-.09,0A145.18,145.18,0,0,0,6.32,81.2,7.65,7.65,0,0,1,1.08,77.61Z"/><path class="cls-1" d="M58.24,18.44a9.67,9.67,0,0,1-2.27,19h0A9.57,9.57,0,0,1,49.46,35c-.57,3-1,5.86-1.39,8.65a2.5,2.5,0,0,1-2.46,2.17h-.32A2.49,2.49,0,0,1,43.13,43v0c.46-3.61,1.1-7.38,1.89-11.22a2.46,2.46,0,0,1,.39-.91,4.08,4.08,0,0,1,4.33-1.63l.33.08a4,4,0,0,1,2.2,1.43A4.62,4.62,0,0,0,56,32.51h0a4.69,4.69,0,0,0,1.08-9.25,4.58,4.58,0,0,0-2.92.24,4.2,4.2,0,0,1-2.62.22l-.33-.08a4.1,4.1,0,0,1-3-3.49,2.58,2.58,0,0,1,.09-1c.5-1.67,1-3.32,1.55-4.91a2.62,2.62,0,0,0-.24-2.2,2.54,2.54,0,0,0-1.8-1.24A152,152,0,0,1,25.15,5.1a2.63,2.63,0,0,0-3.34,1.66,3.37,3.37,0,0,0-.09.34,150.52,150.52,0,0,1-7.8,28.48A2.49,2.49,0,0,1,9.27,33.8,145.39,145.39,0,0,0,16.75,6.33,7.61,7.61,0,0,1,25.54.11,7.5,7.5,0,0,1,26.67.4,147.21,147.21,0,0,0,48.55,5.91a7.61,7.61,0,0,1,6.21,8.81,7.1,7.1,0,0,1-.28,1.1c-.28.85-.57,1.73-.84,2.61A9.3,9.3,0,0,1,58.24,18.44Z"/><path class="cls-1" d="M64.08,9.21a146.79,146.79,0,0,0,27.54,7.54,7.6,7.6,0,0,1,6.22,8.78,7.32,7.32,0,0,1-.29,1.14A146.9,146.9,0,0,0,92,48.55a7.62,7.62,0,0,1-8.81,6.2,7.06,7.06,0,0,1-1.1-.27l-2.61-.84a9.5,9.5,0,0,1,0,4.62,9.66,9.66,0,0,1-9.36,7.3A10.09,10.09,0,0,1,66,64.62a9.61,9.61,0,0,1-3-15.15c-3-.57-5.86-1-8.65-1.39A2.49,2.49,0,0,1,55,43.14c3.61.46,7.38,1.1,11.22,1.89a2.31,2.31,0,0,1,.91.39,4.06,4.06,0,0,1,1.63,4.33l-.08.33a4.07,4.07,0,0,1-1.43,2.2A4.59,4.59,0,0,0,65.44,56a4.69,4.69,0,0,0,9.25,1.08,4.57,4.57,0,0,0-.24-2.92,4.21,4.21,0,0,1-.22-2.62l.08-.33a4.07,4.07,0,0,1,3.49-3,2.41,2.41,0,0,1,1,.09c1.67.5,3.32,1,4.91,1.55a2.69,2.69,0,0,0,2.2-.24,2.58,2.58,0,0,0,1.24-1.8,151.74,151.74,0,0,1,5.7-22.63,2.64,2.64,0,0,0-1.66-3.35l-.34-.08a152,152,0,0,1-28.48-7.8,2.49,2.49,0,0,1,1.78-4.65Z"/><path class="cls-1" d="M50.23,87.15a150.52,150.52,0,0,1,22.63,5.7,2.66,2.66,0,0,0,3.35-1.67c0-.11.06-.22.08-.33a151.61,151.61,0,0,1,7.8-28.48,2.49,2.49,0,1,1,4.69,1.69.36.36,0,0,1,0,.09A146.58,146.58,0,0,0,81.2,91.69a7.6,7.6,0,0,1-8.78,6.21,7.3,7.3,0,0,1-1.14-.28A145.68,145.68,0,0,0,49.4,92.11a7.62,7.62,0,0,1-6.2-8.81,6.8,6.8,0,0,1,.27-1.1c.28-.85.57-1.73.84-2.61a9.5,9.5,0,0,1-4.62,0A9.67,9.67,0,0,1,42,60.48h0A9.44,9.44,0,0,1,48.48,63c.57-3,1-5.86,1.39-8.65A2.49,2.49,0,0,1,54.8,55c-.46,3.61-1.1,7.38-1.89,11.22a2.44,2.44,0,0,1-.39.91,4.1,4.1,0,0,1-4.33,1.63l-.33-.08a4.18,4.18,0,0,1-2.2-1.43A4.54,4.54,0,0,0,42,65.45h0a4.69,4.69,0,1,0,1.84,9,4.07,4.07,0,0,1,2.62-.22l.33.08a4.06,4.06,0,0,1,3,3.49,2.44,2.44,0,0,1-.09,1c-.5,1.67-1,3.32-1.55,4.91a2.7,2.7,0,0,0,.24,2.2A2.63,2.63,0,0,0,50.23,87.15Z"/></g></g></svg>