<?xml version="1.0" encoding="utf-8"?>
<!-- Generator: Adobe Illustrator 22.1.0, SVG Export Plug-In . SVG Version: 6.00 Build 0)  -->
<svg version="1.1" id="Layer_1" xmlns="http://www.w3.org/2000/svg" xmlns:xlink="http://www.w3.org/1999/xlink" x="0px" y="0px"
	 viewBox="0 0 97.4 85.8" style="enable-background:new 0 0 97.4 85.8;" xml:space="preserve">
<style type="text/css">
	.st0{fill:#1671BD;}
	.st1{fill:#63A0A9;}
	.st2{fill:#FFFFFF;}
</style>
<title>Asset 2</title>
<path class="st0" d="M87.2,17.1c0.6,0.2,0.9,1,0.3,3.2s-1.2,2.8-1.6,2.8c-0.1,0-0.2,0-0.3-0.1c-0.2,1-0.5,2-0.9,3v3.2
	c0,0.1,0.1,0.3,0.2,0.3c4,1.9,7.7,4.3,11.1,7.1c0.9,0.7,1.4,1.8,1.4,2.9v9.2H72.1V35.9c0-2-0.8-3.9-2.2-5.4c0.6-0.4,1.3-0.7,2-1
	c0.1-0.1,0.2-0.2,0.2-0.3v-2.8c-0.7-1.2-1.1-2.5-1.3-3.8c-0.4,0-1-0.6-1.6-2.8c-0.8-2.7,0-3.3,0.7-3.3H70c-0.5-1.4-0.6-2.9-0.2-4.4
	c0.4-1.5,1.2-2.9,2.3-4c0.6-0.7,1.3-1.3,2.1-1.7c0.6-0.4,1.3-0.8,2-1C76.8,5.2,77.4,5.1,78,5h0.8c1.3,0,2.6,0.3,3.8,1
	c0.9,0.5,1.7,1.2,2.3,2.1C84.9,8.1,89,8.5,87.2,17.1z"/>
<path class="st0" d="M25.3,41.5v-5.6c0-2,0.8-3.9,2.2-5.4c-0.6-0.4-1.3-0.7-2-1c-0.1-0.1-0.2-0.2-0.2-0.3V26c0.5-0.9,0.8-2,0.9-3
	c0.1,0.1,0.2,0.1,0.3,0.1c0.4,0,1-0.6,1.6-2.8s0.3-3-0.3-3.2c1.8-8.6-2.3-8.9-2.3-8.9c-0.5-0.9-1.3-1.6-2.3-2.1
	c-1.1-0.7-2.5-1-3.8-1h-0.8c-0.6,0-1.2,0.2-1.8,0.4c-0.7,0.3-1.4,0.6-2,1C14,7,13.3,7.6,12.7,8.2c-1.1,1.1-1.9,2.5-2.3,4
	c-0.4,1.4-0.4,3,0.2,4.4h-0.1c-0.7,0-1.4,0.5-0.7,3.3c0.6,2.1,1.2,2.7,1.6,2.8c0.2,1.3,0.6,2.6,1.3,3.8v2.8c0,0.1-0.1,0.3-0.2,0.3
	c-4,1.9-7.7,4.3-11.1,7.1C0.5,37.4,0,38.5,0,39.6v9.1h25.2L25.3,41.5L25.3,41.5z"/>
<path class="st0" d="M68.7,77.2l-0.8-8.3c0-0.2-0.2-0.3-0.4-0.3c-0.1,0-0.2,0-0.2,0.1l-1.9,1.9l-3.8-3.7c-1,1.4-2.3,2.7-3.7,3.7
	l3.7,3.7l-1.9,1.9c-0.1,0.3,0,0.7,0.3,0.7l8.3,0.8C68.5,77.7,68.7,77.4,68.7,77.2z"/>
<path class="st0" d="M27.2,52.1l-6.5,5.3c-0.2,0.2-0.2,0.5,0,0.7c0,0,0,0,0,0l6.4,5.3c0.2,0.2,0.6,0,0.6-0.3v-2.7H33
	c-0.1-0.9-0.2-1.7-0.2-2.6c0-0.9,0.1-1.7,0.2-2.6h-5.3v-2.7C27.7,52.1,27.4,51.9,27.2,52.1z"/>
<path class="st0" d="M70.2,63.3l6.4-5.3c0.2-0.2,0.2-0.5,0-0.7c0,0,0,0,0,0L70.2,52c-0.2-0.2-0.6,0-0.6,0.3V55h-5.3
	c0.1,0.9,0.2,1.7,0.2,2.6c0,0.9-0.1,1.7-0.2,2.6h5.4v2.7C69.7,63.3,70,63.5,70.2,63.3z"/>
<path class="st0" d="M29.2,77.7l8.3-0.8c0.2,0,0.3-0.2,0.3-0.4c0-0.1,0-0.2-0.1-0.2l-2-1.9l3.7-3.7c-1.4-1-2.7-2.3-3.7-3.7L32,70.7
	l-1.9-1.9c-0.1-0.1-0.4-0.1-0.5,0c-0.1,0.1-0.1,0.1-0.1,0.2l-0.8,8.2C28.7,77.5,28.9,77.7,29.2,77.7C29.2,77.7,29.2,77.7,29.2,77.7z
	"/>
<path class="st0" d="M48.7,73.6c-0.9,0-1.7-0.1-2.6-0.2v5.3h-2.7c-0.2,0-0.4,0.2-0.4,0.4c0,0.1,0,0.2,0.1,0.2l5.3,6.4
	c0.2,0.2,0.5,0.2,0.7,0c0,0,0,0,0,0l5.3-6.4c0.2-0.2,0-0.6-0.3-0.6h-2.7v-5.3C50.5,73.5,49.6,73.6,48.7,73.6z"/>
<path class="st0" d="M68.4,48.7V35.9c0-1.2-0.5-2.3-1.4-3c-3.6-2.9-7.5-5.4-11.6-7.4c-0.1-0.1-0.2-0.2-0.2-0.3v-3.3
	c0.5-1,0.8-2,1-3.1c0.5,0.3,1.2,0.1,2-2.8c0.7-2.4,0.3-3.2-0.3-3.4h-0.2c0.1-0.2,0.1-0.3,0.1-0.5c2.2-9.2-2.9-8.8-2.9-8.8
	c-0.8-2.2-3.1-3.6-5.4-3.2C47.1,0.6,42.1,0,42.1,0c0,0.7,0.3,1.4,0.8,1.8c-5.1,3.1-3,10.3-3,10.3c-0.8-0.1-1.7,0.4-0.8,3.4
	c0.6,2.2,1.2,2.8,1.7,2.9c0.2,1.4,0.6,2.7,1.3,4v2.8c0,0.1-0.1,0.2-0.2,0.3c-4.1,2.1-8,4.5-11.6,7.4c-0.9,0.7-1.4,1.8-1.4,3v12.9
	h6.4c4.9-7.3,14.8-9.3,22.2-4.4c1.7,1.2,3.2,2.7,4.4,4.4L68.4,48.7L68.4,48.7z"/>
<path class="st1" d="M48.7,70.4c-7,0-12.7-5.7-12.7-12.7c0-7,5.7-12.7,12.7-12.7c7,0,12.7,5.7,12.7,12.7
	C61.4,64.7,55.7,70.4,48.7,70.4z"/>
<polygon class="st2" points="55,55 52.6,52.6 47.1,58.1 44.8,55.8 42.4,58.2 44.7,60.5 47.1,62.9 49.5,60.5 "/>
</svg>
