<svg xmlns="http://www.w3.org/2000/svg" viewBox="0 0 340.93 253.09"><defs><style>.cls-1{fill:#24405b;}.cls-2{fill:#6ab1e2;}.cls-3{fill:#3481c1;}.cls-4{fill:#120d04;}.cls-5{fill:#2b2922;}.cls-6{fill:#828181;}.cls-7{fill:#adaeae;}.cls-8{fill:#e9dcde;}.cls-9{fill:#948e93;}.cls-10{fill:#c7c4c4;}.cls-11{fill:#4d4d4c;}.cls-12{fill:#c1b9c0;}.cls-13{fill:#fff;}.cls-14{fill:#cbd7ff;}.cls-15{fill:#4e7497;}.cls-16{fill:#ac5b22;}.cls-17{fill:#44494c;}.cls-18{fill:#555b5e;}.cls-19{fill:#f5b697;}.cls-20{fill:#cf1e50;}.cls-21{fill:#e89d54;}.cls-22{fill:#e0a082;}.cls-23{fill:#555a5d;}.cls-24{fill:#c4c3c0;}.cls-25{fill:#919191;}.cls-26{fill:#3c393a;stroke:#5b5b5b;stroke-miterlimit:10;stroke-width:0.15px;}.cls-27{fill:#5e5e60;}.cls-28{fill:#fff5f9;}.cls-29{fill:#fffdfe;}</style></defs><title>Asset 2</title><g id="Layer_2" data-name="Layer 2"><g id="Layer_2-2" data-name="Layer 2"><polygon class="cls-1" points="0.62 154.94 170.62 253.09 170.62 233.46 0 134.95 0.62 154.94"/><polygon class="cls-2" points="170.62 253.09 340.62 154.94 340.62 135.31 170.62 233.46 170.62 253.09"/><polygon class="cls-3" points="0.31 135.44 170.93 233.95 340.93 135.8 170.93 37.65 0.31 135.44"/><polygon class="cls-1" points="92.59 170.17 40.55 137.29 172.1 61.78 224.13 94.67 92.59 170.17"/><polygon class="cls-4" points="128.9 136.46 127.18 137.5 81.87 106.81 81.87 51.86 128.9 81.51 128.9 136.46"/><polygon class="cls-5" points="127.18 137.5 80.15 107.85 80.15 52.9 127.18 82.55 127.18 137.5"/><polygon class="cls-6" points="119.55 132.37 81.55 153.56 81.47 98.61 119.47 77.41 119.55 132.37"/><polygon class="cls-7" points="117.73 104.15 83.36 123.32 83.29 111.47 117.73 91.45 117.73 104.15"/><polygon class="cls-8" points="91.61 106.93 91.64 111.43 109.45 101.5 109.45 96.57 91.61 106.93"/><polygon class="cls-9" points="91.61 106.63 91.64 111.13 109.45 101.2 109.45 96.27 91.61 106.63"/><polygon class="cls-10" points="117.73 92.73 83.36 111.9 83.29 110.65 117.73 91.45 117.73 92.73"/><polygon class="cls-7" points="117.73 130.05 83.36 149.22 83.29 128.2 117.73 108.18 117.73 130.05"/><polygon class="cls-8" points="91.61 127.09 91.64 131.59 109.45 121.66 109.45 116.73 91.61 127.09"/><polygon class="cls-9" points="91.61 126.79 91.64 131.28 109.45 121.36 109.45 116.42 91.61 126.79"/><polygon class="cls-8" points="91.61 139.23 91.64 140.6 109.45 130.67 109.45 128.87 91.61 139.23"/><polygon class="cls-9" points="91.61 138.59 91.64 140.29 109.45 130.36 109.45 128.22 91.61 138.59"/><polygon class="cls-4" points="84.58 161.95 82.86 162.99 37.55 132.31 37.55 77.35 84.58 107 84.58 161.95"/><polygon class="cls-5" points="82.86 162.99 35.83 133.34 35.83 78.39 82.86 108.04 82.86 162.99"/><polygon class="cls-4" points="205.3 91.61 203.58 92.65 158.27 61.97 158.27 7.01 205.3 36.66 205.3 91.61"/><polygon class="cls-5" points="203.58 92.65 156.55 63 156.55 8.05 203.58 37.7 203.58 92.65"/><polygon class="cls-11" points="80.29 110.12 29.2 80.62 29.2 78.54 160.77 5.11 211.85 32.52 211.85 34.6 80.29 110.12"/><polygon class="cls-11" points="211.85 32.56 208.55 32.69 161.38 58.54 80.29 106.86 80.29 110.12 211.85 34.6 211.85 32.56"/><polygon class="cls-12" points="80.29 108.18 29.25 78.52 160.77 3.17 211.77 32.56 80.29 108.18"/><polygon class="cls-6" points="80.29 108.04 29.2 78.54 160.77 3.02 211.85 32.52 80.29 108.04"/><path class="cls-13" d="M55.35,142.18l.54,17.3c0,3,3.92,5.35,8.76,5.35s8.76-2.4,8.76-5.35l.66-17.3Z"/><ellipse class="cls-14" cx="64.66" cy="143.51" rx="9.54" ry="5.4"/><polyline class="cls-14" points="55.12 141.57 55.12 143.76 56.41 145.47 61.25 147.65 69.68 147.19 72.06 145.59 74.2 143.67 74.2 141.22 73.37 141.57 69.13 141.78"/><ellipse class="cls-13" cx="64.66" cy="141.57" rx="9.54" ry="5.83"/><ellipse class="cls-15" cx="64.71" cy="141.22" rx="8.3" ry="5.07"/><ellipse class="cls-1" cx="211.19" cy="178.46" rx="17.42" ry="30.08" transform="translate(32.13 389.14) rotate(-89.84)"/><path class="cls-16" d="M209.28,178.61s.27,5.76-.27,7.27-5.36,3.57-8.78,2.33a12.89,12.89,0,0,1-6.59-4.66c-1.1-1.65-5-3.63-5.9-5.49-1.44-2.87,1.37-5.21,3.84-5.76a8.8,8.8,0,0,1,7.82,2.33C201.73,176.83,209.28,178.61,209.28,178.61Z"/><path class="cls-16" d="M235.57,170.86s.27,5.76-.28,7.27-5.35,3.57-8.78,2.33a12.81,12.81,0,0,1-6.58-4.66c-1.1-1.65-5-3.63-5.9-5.49-1.45-2.87,1.37-5.21,3.84-5.76a8.8,8.8,0,0,1,7.82,2.33C228,169.08,235.57,170.86,235.57,170.86Z"/><path class="cls-17" d="M236,97.73a66.64,66.64,0,0,1-.94,17.12c-1.73,8.89-.07,51,.51,56.44,0,0-4.91,6.07-11.85,0,0-16.19-4-44.22-2-61.86S236,97.73,236,97.73Z"/><path class="cls-18" d="M235.51,100.33c-.28,1-1.3,10.41-15.54,16-7.8,4-9,11-9.54,17.06s-.58,45.09-1.15,46.24-5.5,5.78-11.57,0c-.57-16.76-.86-74,.29-80.93S236.37,97.15,235.51,100.33Z"/><path class="cls-19" d="M195.19,114.42s1.95,5.42.43,7.15c-.87.44-1.52-1.08-1.52-1.08s-.65,4.77-1.73,6.07-4.34-2.17-4.34-6.72S191.5,110.74,195.19,114.42Z"/><path class="cls-20" d="M212.74,45.55S200.6,49,195.84,56.68c-1.85,3-2,12.14.57,18.21s.08,27.61.94,31.94,13.23,6.51,20.45,5.35,18.47-6.07,18.21-14.45c-.73-23.77-.73-35.44-1.73-41.05a18.65,18.65,0,0,0-4.77-9.1S225.46,43,212.74,45.55Z"/><path class="cls-21" d="M195.84,56.68s-3.91,1.59-4.48,14.89-2.9,41.33-2.9,43.65,5.21,5.49,7.81,1.15c3-5.08,3.47-25.72,4-28.32S203.5,69,201.76,63.76A12.24,12.24,0,0,0,195.84,56.68Z"/><path class="cls-22" d="M219.75,10.22s-6.72-2-12.35,1.52-6.51,7.37-6.29,12.79S200.89,38,203.71,44s15,1.08,18.65-1.3,7.58-11.93,7.15-19.3S226.47,11.52,219.75,10.22Z"/><path class="cls-22" d="M224.88,39.58s-2.83,5.67-2.83,7.73S217.67,52,212,50.92s-6.18-2.32-6.18-2.32,2.83-4.12,3.61-7.47S224.88,39.58,224.88,39.58Z"/><path class="cls-23" d="M205.91,10.12a10.87,10.87,0,0,0-7,9.32c0,1.55,1.55,9.31,9.7,8.15.39.39.39,2.72.39,2.72s2.72-2.72,4.27,0-1.16,7.37-3.88,6.59A9.31,9.31,0,0,0,211,42c1.56,1.94,6.6,4.66,9.71,3.49s11.26-9.31,12-21-4.27-9.7-4.27-9.7-1.55-5-8.15-7S205.91,10.12,205.91,10.12Z"/><polygon class="cls-24" points="91.36 13.58 91.36 48.89 142.1 74.69 142.1 39.38 91.36 13.58"/><polygon class="cls-25" points="99.37 36.67 131.42 52.97 131.47 42.1 99.37 26.13 99.37 36.67"/><polygon class="cls-24" points="91.36 13.58 142.1 39.38 168.89 25.76 118.06 0 91.36 13.58"/><line class="cls-26" x1="106.06" y1="6.11" x2="156.89" y2="31.87"/><polygon class="cls-24" points="142.1 74.69 168.85 61.09 168.89 25.76 142.1 39.38 142.1 74.69"/><path class="cls-27" d="M144.16,38.34c-2.06,1-2.06,3.95-2.06,3.95v32.4l26.75-13.6,0-35.33"/><path class="cls-28" d="M166.63,69.26,156,74.69s0-21.72-2.67-20.37L164,48.89C166.63,47.53,166.63,69.26,166.63,69.26Z"/><polygon class="cls-29" points="150.11 40.74 144.77 43.46 144.77 48.89 150.11 46.17 150.11 40.74"/></g></g></svg>