<svg xmlns="http://www.w3.org/2000/svg" viewBox="0 0 340.78 217.94"><defs><style>.cls-1{fill:#24405b;}.cls-2{fill:#6ab1e2;}.cls-3{fill:#3481c1;}.cls-15,.cls-4{fill:#1e1e1e;}.cls-5{isolation:isolate;}.cls-13,.cls-6{fill:#333;}.cls-14,.cls-7{fill:#474c52;}.cls-16,.cls-8{fill:#fff;}.cls-9{fill:#d19705;}.cls-10{fill:#ffc60b;}.cls-11{fill:#eaae06;}.cls-12{fill:#bf8506;}.cls-13,.cls-14,.cls-15,.cls-16,.cls-17{fill-rule:evenodd;}.cls-17{fill:#b2b1af;}.cls-18{fill:#e8240a;}.cls-19{fill:#6e4739;}.cls-20{fill:#0c98bb;}.cls-21{fill:#0fa5d7;}.cls-22{fill:#f5b697;}.cls-23{fill:#cf1e50;}.cls-24{fill:#e89d54;}.cls-25{fill:#fad3c3;}.cls-26{fill:#141414;}.cls-27{fill:#4e4c51;}.cls-28{fill:#c7c3d1;}</style></defs><title>Asset 3</title><g id="Layer_2" data-name="Layer 2"><g id="Layer_2-2" data-name="Layer 2"><polygon class="cls-1" points="0.62 119.79 170.62 217.94 170.62 198.31 0 99.8 0.62 119.79"/><polygon class="cls-2" points="170.62 217.94 340.62 119.79 340.62 100.16 170.62 198.31 170.62 217.94"/><polygon class="cls-3" points="0.15 99.8 170.78 198.31 340.78 100.16 170.78 2.01 0.15 99.8"/><polygon class="cls-1" points="146.62 21.71 82.81 58.44 237.88 150.97 304.29 112.74 146.62 21.71"/><path class="cls-4" d="M265.86,80.21c0-.36.09-.71.16-1a.68.68,0,0,1,0-.14q.1-.48.24-.93l.06-.16a7,7,0,0,1,.31-.8l0-.09q.21-.42.45-.81a6.52,6.52,0,0,1,.77-.95l.21-.2a5.73,5.73,0,0,1,.94-.72l-56.57,32.87a5.45,5.45,0,0,0-.94.72l-.21.21a5.6,5.6,0,0,0-.77,1v0a6.22,6.22,0,0,0-.43.76v0a.36.36,0,0,1,0,.09c-.07.17-.15.34-.21.52a2.31,2.31,0,0,0-.1.28c0,.05,0,.11,0,.16a.88.88,0,0,0-.05.15l-.15.57a1.55,1.55,0,0,0,0,.21l0,.13c0,.07,0,.14,0,.21s-.06.35-.08.53l0,.31s0,.07,0,.11a.49.49,0,0,0,0,.12c0,.17,0,.35,0,.53s0,.36,0,.54v0l56.57-32.87c0-.43,0-.84.06-1.23A.41.41,0,0,0,265.86,80.21Z"/><path class="cls-4" d="M174.18,27.28a8.85,8.85,0,0,1,.15-1.05l0-.13a7,7,0,0,1,.24-.93.75.75,0,0,1,.05-.16,8.32,8.32,0,0,1,.31-.8l0-.09a6.24,6.24,0,0,1,.44-.81,5.65,5.65,0,0,1,.78-.95l.21-.21a4.94,4.94,0,0,1,.94-.71L120.79,54.31a6.34,6.34,0,0,0-.94.72l-.21.2a6.11,6.11,0,0,0-.77,1h0a8,8,0,0,0-.42.77v0a.36.36,0,0,0,0,.09c-.08.17-.15.33-.22.51l-.09.28-.06.17a.78.78,0,0,1,0,.14c0,.19-.1.38-.14.57s0,.15,0,.22a.59.59,0,0,0,0,.13,1.42,1.42,0,0,0,0,.2c0,.18-.06.35-.08.54s0,.2,0,.3a.41.41,0,0,1,0,.11s0,.08,0,.13,0,.35,0,.52,0,.36,0,.55v0l56.58-32.88q0-.63.06-1.23A.34.34,0,0,1,174.18,27.28Z"/><g class="cls-5"><path class="cls-6" d="M125.88,55.17a3.61,3.61,0,0,1,.44-.22l.09,0,.14-.06.23-.08a2.27,2.27,0,0,1,.25-.06l.16,0,.08,0,.53-.07h.72l.27,0,.24,0,.22,0,.36.07.2,0,.44.13.05,0c.18.06.36.12.54.2l.22.09.21.09c.26.13.53.26.8.41a9,9,0,0,1,.84.52l.27.19c.19.13.37.26.56.41l.3.24.5.43.3.27L135,58a1.8,1.8,0,0,1,.19.2c.2.19.4.4.59.61L136,59l.15.18c.12.14.23.28.35.41l.22.27.18.23.25.33c.05.08.11.15.16.22s.19.27.28.4l.17.25a.86.86,0,0,0,.07.1c.16.24.31.49.46.74l0,0,.09.16.3.52.13.25c0,.09.1.18.14.27l.12.22.29.62a.54.54,0,0,1,.05.11l0,0,.33.78c0,.05,0,.1.05.15s.07.19.11.28.1.26.14.39.07.21.1.31l.12.36.07.22c0,.14.06.27.1.4l.12.45a.83.83,0,0,0,0,.15c0,.11,0,.22.05.33s.1.46.13.69c0,.07,0,.13,0,.2s0,.29.05.43l0,.31c0,.33,0,.65,0,1,0,2.76-.92,4.71-2.48,5.65L133,79.66c1.56-.93,2.51-2.88,2.48-5.65,0-.32,0-.64-.05-1l0-.31-.09-.63c0-.23-.08-.47-.13-.7s-.06-.32-.1-.47-.07-.3-.11-.45-.11-.42-.17-.62l-.12-.36-.24-.7-.11-.29c-.13-.32-.26-.64-.4-1l0-.1c-.13-.29-.27-.57-.41-.85l-.14-.26c-.14-.26-.28-.52-.43-.78l-.09-.15c-.18-.31-.37-.6-.56-.89l-.17-.25c-.15-.21-.29-.42-.45-.62l-.24-.33-.4-.5c-.12-.14-.23-.28-.35-.41l-.34-.38c-.19-.21-.39-.41-.59-.61l-.37-.37-.3-.27c-.17-.14-.33-.29-.5-.42l-.31-.25-.55-.41-.27-.18a9,9,0,0,0-.84-.52,7.7,7.7,0,0,0-.81-.41l-.2-.09-.76-.3h0c-.22-.07-.43-.12-.64-.17l-.36-.07-.46-.07-.27,0h-.69a3.4,3.4,0,0,0-.64.09l-.16,0-.48.15-.14,0a3.77,3.77,0,0,0-.57.28l5.48-3.27Z"/><path class="cls-7" d="M126.59,59c4.87,2.73,8.86,9.45,8.91,15s-3.85,7.85-8.72,5.12-8.86-9.45-8.91-15S121.72,56.27,126.59,59Z"/></g><g class="cls-5"><path class="cls-8" d="M126.64,63.84a10,10,0,0,1,4.63,7.8c0,2.88-2,4.07-4.53,2.65a10,10,0,0,1-4.63-7.79C122.08,63.61,124.11,62.42,126.64,63.84Z"/></g><g class="cls-5"><path class="cls-6" d="M218.26,107.58a3,3,0,0,1,.44-.22l.08,0,.15-.06.23-.08a1.83,1.83,0,0,1,.25-.06l.15,0,.09,0,.52-.07h.73l.26,0,.25,0,.22,0,.35.07.2,0,.45.13,0,0c.18.06.36.12.54.2a1.45,1.45,0,0,1,.22.09l.21.09c.27.12.53.26.81.41s.56.33.84.52l.27.19c.18.13.37.26.55.41l.3.24c.17.14.34.28.5.43l.3.27.19.17.19.19c.2.2.39.41.59.62l.18.19c.06.06.1.12.15.18s.24.27.35.41l.22.27.18.23.25.33a1.84,1.84,0,0,0,.17.22l.27.4.17.25a.61.61,0,0,1,.07.1c.16.24.32.49.46.74,0,0,0,0,0,0s.06.11.1.16l.3.52c0,.08.08.17.13.25l.13.27.12.22.3.62a.54.54,0,0,0,.05.11v0q.18.39.33.78a1.21,1.21,0,0,1,0,.14c0,.1.08.2.11.29l.15.39.09.31.12.36.07.22c0,.14.07.27.1.4l.12.45c0,.05,0,.1,0,.15l.06.33c.05.23.09.46.13.69l0,.2c0,.14,0,.29.05.43s0,.21,0,.31c0,.33,0,.65.06,1,0,2.76-.93,4.71-2.49,5.65l-5.48,3.27c1.56-.93,2.51-2.89,2.48-5.65,0-.32,0-.64-.05-1l0-.31c0-.21,0-.42-.08-.63s-.09-.47-.13-.7-.06-.32-.1-.48l-.12-.44c-.05-.21-.11-.42-.17-.62l-.12-.36c-.07-.24-.15-.47-.24-.7s-.07-.19-.11-.29c-.12-.32-.25-.64-.4-1l0-.1c-.14-.29-.27-.57-.42-.85l-.13-.26c-.14-.26-.29-.52-.44-.78l-.09-.15c-.18-.31-.36-.6-.56-.89a2.2,2.2,0,0,0-.17-.25c-.14-.21-.29-.42-.44-.62l-.25-.33-.4-.5c-.11-.14-.23-.28-.35-.41l-.34-.38c-.19-.21-.38-.41-.58-.61l-.38-.37-.3-.27c-.16-.14-.33-.29-.5-.42l-.3-.25-.56-.41-.26-.18a9.57,9.57,0,0,0-.84-.52c-.28-.16-.55-.29-.81-.41l-.21-.09-.76-.3h-.05c-.21-.07-.42-.12-.64-.17l-.36-.07-.46-.07-.26,0h-.69a3.51,3.51,0,0,0-.65.09l-.15,0a3.37,3.37,0,0,0-.48.15l-.15,0a3.77,3.77,0,0,0-.57.28l5.48-3.27Z"/><path class="cls-7" d="M219,111.42c4.86,2.73,8.85,9.45,8.9,15s-3.85,7.85-8.71,5.12-8.86-9.45-8.92-15S214.1,108.68,219,111.42Z"/></g><g class="cls-5"><path class="cls-8" d="M219,116.25a10,10,0,0,1,4.63,7.79c0,2.89-2,4.08-4.53,2.66a10,10,0,0,1-4.63-7.79C214.46,116,216.48,114.83,219,116.25Z"/></g><polygon class="cls-9" points="101.11 37.91 157.69 5.03 171.1 0 114.53 32.88 101.11 37.91"/><polygon class="cls-10" points="114.53 32.88 171.1 0 194.53 13.53 137.96 46.41 114.53 32.88"/><polygon class="cls-9" points="137.96 46.41 194.53 13.53 220.99 6.52 164.41 39.4 137.96 46.41"/><polygon class="cls-6" points="195.15 15.03 209.86 11.13 163.79 37.9 149.08 41.8 195.15 15.03"/><polygon class="cls-10" points="164.41 39.4 220.99 6.52 257.72 27.73 201.15 60.6 164.41 39.4"/><polygon class="cls-9" points="244.04 117.81 300.62 84.94 300.57 101.63 244 134.5 244.04 117.81"/><polygon class="cls-11" points="201.15 60.6 257.72 27.73 300.62 84.94 244.04 117.81 201.15 60.6"/><path class="cls-6" d="M270.79,50,259.54,35.4a5,5,0,0,0-6.45-1.27l-42.3,24.58a5,5,0,0,0-1.44,7.35L220.6,80.67a5,5,0,0,0,6.45,1.26l42.3-24.58A5,5,0,0,0,270.79,50Z"/><path class="cls-12" d="M201.15,60.6,244,117.81l0,16.69-12.44-7.18c0-7.1-5-15.73-11.13-19.3s-11.19-.7-11.21,6.4l-69.33-40c0-7.1-5-15.73-11.14-19.3s-11.2-.7-11.22,6.4L101.07,52l0-14.07,13.42-5L138,46.41l26.45-7Z"/><polygon class="cls-13" points="117.53 58.22 117.53 65.25 115.37 66.43 115.37 59.47 117.53 58.22"/><path class="cls-14" d="M117.53,58.22l-2.16,1.25c-15.17-4.53-16-8.53-16.44-12.26a6.89,6.89,0,0,1,2.17-5.75l0,4.94v.54c0,1.94,1.74,3.89,4.45,5.46Z"/><polygon class="cls-15" points="115.37 59.47 115.37 66.43 104.17 61.1 103.92 60.97 103.68 60.84 103.44 60.7 103.2 60.56 102.97 60.41 102.74 60.26 102.51 60.1 102.28 59.93 102.06 59.76 101.85 59.59 101.63 59.4 101.43 59.22 101.23 59.02 101.03 58.82 100.84 58.61 100.66 58.39 100.48 58.17 100.31 57.94 100.15 57.7 100 57.45 99.85 57.2 99.72 56.93 99.59 56.66 99.47 56.38 99.36 56.09 99.26 55.8 99.17 55.49 99.1 55.17 99.03 54.85 98.98 54.51 98.94 54.17 98.92 53.96 98.9 53.74 98.9 53.53 98.9 46.57 98.9 46.78 98.92 46.99 98.94 47.21 98.98 47.55 99.03 47.89 99.1 48.21 99.17 48.53 99.26 48.84 99.36 49.13 99.47 49.42 99.59 49.7 99.72 49.97 99.85 50.23 100 50.49 100.15 50.74 100.31 50.98 100.48 51.21 100.66 51.43 100.84 51.65 101.03 51.85 101.23 52.06 101.43 52.25 101.63 52.44 101.85 52.63 102.06 52.8 102.28 52.97 102.51 53.14 102.74 53.3 102.97 53.45 103.2 53.6 103.44 53.74 103.68 53.88 103.92 54.01 104.17 54.14 115.37 59.47"/><path class="cls-13" d="M177.42,69l-4.52-2.63a1.92,1.92,0,0,1-.81-1.55h0c0-.59.36-.87.81-.61l4.52,2.63a1.94,1.94,0,0,1,.82,1.55h0C178.24,69,177.87,69.23,177.42,69Z"/><path class="cls-15" d="M300,100.14v3.25h0l2.81-1.62.6-.42.45-.45.3-.48.14-.48v6.8l-.14.49-.3.47-.45.46-.6.41L300,110.2h0l-51.4,29.59h0l-1.82,1.05-.35.18-.37.17-.39.14-.4.12-.41.09-.41.08-.42,0-.42,0h-.83l-.4,0-.39-.07-.37-.08-.36-.12-.33-.13-.31-.16-9.69-5.89-.51-.37-.34-.42-.18-.46,0-.47v-6.81l0,.48.18.46.34.42.51.37,9.69,5.89.31.15.33.14.36.11.37.09.39.06.4,0,.41,0h.42l.42,0,.42,0,.41-.07.41-.1.4-.12.39-.14.37-.16.35-.19,1.82-1.05h0l50.21-29Zm0,3.25v6.8h0Z"/><path class="cls-14" d="M231.36,124.83,244,132.4l56.42-32.49.24-3.21,2.62,1.51c1.57.91,1.37,2.51-.44,3.56L300,103.39h0L248.59,133h0L246.77,134a6.89,6.89,0,0,1-6.16.26l-9.69-5.89C229.35,127.48,229.55,125.88,231.36,124.83Z"/><polygon class="cls-14" points="209.22 114.42 139.87 74.38 137.05 76 206.41 116.05 209.22 114.42"/><polygon class="cls-15" points="206.41 116.05 137.05 76 137.05 78.59 206.41 118.64 206.41 116.05"/><polygon class="cls-13" points="209.22 114.42 209.22 117.03 206.41 118.64 206.41 116.05 209.22 114.42"/><path class="cls-16" d="M138.65,41.68a2.44,2.44,0,0,1,2.46-.25l.87.51a2.44,2.44,0,0,1,1,2.25,7.71,7.71,0,0,1-3.48,6,2.44,2.44,0,0,1-2.46.24l-.87-.5a2.44,2.44,0,0,1-1-2.25,7.71,7.71,0,0,1,3.48-6Z"/><path class="cls-17" d="M139.52,42.18c1.92-1.11,3.48-.21,3.48,2a7.7,7.7,0,0,1-3.48,6c-1.92,1.11-3.48.21-3.48-2A7.7,7.7,0,0,1,139.52,42.18Z"/><path class="cls-17" d="M139,46.55a.62.62,0,1,1,1-.7,11.58,11.58,0,0,0,7.3,4.53.61.61,0,0,1,.51.71.62.62,0,0,1-.7.51A12.91,12.91,0,0,1,139,46.55Z"/><path class="cls-6" d="M275,93.85a1.18,1.18,0,0,0-1.53-.3L269,96.28a1.17,1.17,0,0,0-.34,1.74h0a1.18,1.18,0,0,0,1.52.3l4.44-2.74A1.18,1.18,0,0,0,275,93.85Z"/><path class="cls-18" d="M242.49,120.25l.15,0a2.37,2.37,0,0,0,1.8-.28l2.94-1.78A2.4,2.4,0,0,1,251,120l.33,3.29a2.4,2.4,0,0,1-1.15,2.29l-4.92,3a2.39,2.39,0,0,1-2.26.12l-2.09-1a2.42,2.42,0,0,1-1.38-2.18v-3A2.39,2.39,0,0,1,242.49,120.25Z"/><path class="cls-18" d="M300.64,88.27c2.54,3,.35,7.21.35,7.21l-3.36,2.27A1,1,0,0,1,296,96.9V93.33a3.54,3.54,0,0,1,1.51-2.89Z"/><path class="cls-15" d="M280.54,101.4l-13.94,8a1.7,1.7,0,0,0-.84,1.46v3.31a1.69,1.69,0,0,0,2.52,1.46l13.94-8a1.7,1.7,0,0,0,.85-1.46v-3.31A1.69,1.69,0,0,0,280.54,101.4Z"/><path class="cls-6" d="M179.47,51.8,166.3,44.19a6.57,6.57,0,0,0-5-.66l-10.05,2.66A1.32,1.32,0,0,0,151,48.6l28.5,16.45Z"/><path class="cls-6" d="M212.65,81.3,199.78,64.13a6.61,6.61,0,0,0-2-1.75L181.62,53V66.3l29.32,16.92A1.31,1.31,0,0,0,212.65,81.3Z"/><ellipse class="cls-1" cx="132.97" cy="142.74" rx="14.89" ry="25.71" transform="translate(-10.14 275.3) rotate(-89.84)"/><path class="cls-19" d="M137.35,143s-.22,4.62.22,5.83,4.28,2.86,7,1.87a10.35,10.35,0,0,0,5.28-3.74c.88-1.32,4-2.91,4.73-4.4,1.15-2.3-1.1-4.18-3.08-4.62a7,7,0,0,0-6.27,1.87C143.39,141.54,137.35,143,137.35,143Z"/><path class="cls-19" d="M116.28,136.76s-.22,4.62.22,5.83,4.29,2.86,7,1.87a10.27,10.27,0,0,0,5.27-3.74c.88-1.32,4-2.91,4.73-4.4,1.16-2.3-1.1-4.18-3.08-4.62a7,7,0,0,0-6.26,1.87C122.33,135.33,116.28,136.76,116.28,136.76Z"/><path class="cls-20" d="M115.92,78.15a53.62,53.62,0,0,0,.75,13.73c1.39,7.12.06,40.82-.4,45.22,0,0,3.94,4.87,9.5,0,0-13,3.24-35.44,1.62-49.57S115.92,78.15,115.92,78.15Z"/><path class="cls-21" d="M116.33,80.24c.22.8,1,8.34,12.45,12.85,6.25,3.25,7.18,8.8,7.64,13.67s.47,36.14.93,37.06,4.4,4.63,9.26,0c.47-13.43.7-59.3-.23-64.86S115.63,77.69,116.33,80.24Z"/><path class="cls-22" d="M164.71,53.68a20.45,20.45,0,0,1,2.18-2.8c.62-.47,5.13-1.4,5.29-.62s-2.33,1.86-2.33,1.86,4.82,1.09,5.75,2.49-4.51,2.18-5.91,2.18a7,7,0,0,0-3,.93S163.16,56.79,164.71,53.68Z"/><path class="cls-23" d="M134.57,36.34s9.73,2.78,13.55,8.92c1.48,2.37,1.62,9.73-.46,14.59s-.06,22.12-.76,25.6-10.59,5.21-16.38,4.28-14.8-4.86-14.6-11.58c.59-19.05.59-28.4,1.39-32.89a15,15,0,0,1,3.82-7.3S124.38,34.25,134.57,36.34Z"/><path class="cls-24" d="M146.45,44.62s3.32,1.55,4.2,6.42,4.42,12.38,4.42,12.38l8.69-10.61a5.54,5.54,0,0,1,4,5.14s-9.07,14.93-13.27,16.26-12.23-16.54-13.55-20.3S142.47,42.85,146.45,44.62Z"/><path class="cls-25" d="M129,8s5.39-1.56,9.9,1.22,5.22,5.9,5,10.25c-.21,5.43-.17,11.52-2.08,15.63-2.26,4.87-12,.87-14.94-1s-6.08-9.55-5.74-15.46S123.57,9.06,129,8Z"/><path class="cls-25" d="M124.84,31.55s2.27,4.55,2.27,6.2,3.52,3.72,8.06,2.89,5-1.86,5-1.86a22.06,22.06,0,0,1-2.89-6C136.62,30.1,124.84,31.55,124.84,31.55Z"/><path class="cls-24" d="M138.43,5.62s1.55.62,4.66,2.17l3.11,1.56-2.49,2.18A6.53,6.53,0,0,1,146.82,15c.32,1.24-2.17.62-2.17.62A12.43,12.43,0,0,1,145,19c0,2.49-2.18,0-5.29-.62.93.62,1.24,3.11,1.24,3.11a68.56,68.56,0,0,1-6.84-1.24c.62.93,1.56,5.29,1.56,5.29s-2.8-3.43-3.43-1.25.94,5.91,2.8,5.6l1.25-.31a6.79,6.79,0,0,1-2.8,4,22.85,22.85,0,0,1-6.22,1.87s-5.91-6.22-6.54-7.47-2.8-5.6-2.8-10A13,13,0,0,1,121,10.28a10.86,10.86,0,0,1,1.56-3.42C123.8,5,129.4,5.62,130.34,5.3a36.11,36.11,0,0,0,4.35-2.8L135,5.62l4.67-1.87Z"/><path class="cls-26" d="M180.13,49.77l-.31-.21-4.2-2.45a1.13,1.13,0,0,0-1,0l-10.26,6-.28.15v.2h0a.36.36,0,0,0,.21.3l4.22,2.51a1.13,1.13,0,0,0,1,0l10.4-6a.37.37,0,0,0,.22-.31h0Z"/><path class="cls-26" d="M175.62,47a1.13,1.13,0,0,0-1,0l-10.33,6a.32.32,0,0,0,0,.6l4.22,2.51a1.13,1.13,0,0,0,1,0l10.4-6a.32.32,0,0,0,0-.6Z"/><path class="cls-8" d="M175.38,47.46a.94.94,0,0,0-.85,0l-8.79,5.12c-.23.14-.23.36,0,.5l3.49,2.07a.94.94,0,0,0,.85,0L178.93,50a.27.27,0,0,0,0-.5Z"/><path class="cls-27" d="M166,54.28c0,.15.26.27.59.27s.59-.12.59-.27-.26-.27-.59-.27S166,54.13,166,54.28Z"/><path class="cls-28" d="M177.17,48.36c0,.07.12.13.28.13s.28-.06.28-.13-.13-.13-.28-.13S177.17,48.29,177.17,48.36Z"/></g></g></svg>