<?xml version="1.0" encoding="utf-8"?>
<!-- Generator: Adobe Illustrator 22.1.0, SVG Export Plug-In . SVG Version: 6.00 Build 0)  -->
<svg version="1.1" id="Layer_1" xmlns="http://www.w3.org/2000/svg" xmlns:xlink="http://www.w3.org/1999/xlink" x="0px" y="0px"
	 viewBox="0 0 340.8 217.9" style="enable-background:new 0 0 340.8 217.9;" xml:space="preserve">
<style type="text/css">
	.st0{fill:#24405B;}
	.st1{fill:#6AB1E2;}
	.st2{fill:#3481C1;}
	.st3{fill:#1E1E1E;}
	.st4{fill:#333333;}
	.st5{fill:#474C52;}
	.st6{fill:#FFFFFF;}
	.st7{fill:#D19705;}
	.st8{fill:#FFC60B;}
	.st9{fill:#EAAE06;}
	.st10{fill:#BF8506;}
	.st11{fill:#B2B1AF;}
	.st12{fill:#E8240A;}
	.st13{fill:#6E4739;}
	.st14{fill:#0C98BB;}
	.st15{fill:#0FA5D7;}
	.st16{fill:#F5B697;}
	.st17{fill:#CF1E50;}
	.st18{fill:#E89D54;}
	.st19{fill:#FAD3C3;}
	.st20{fill:#141414;}
	.st21{fill:#4E4C51;}
	.st22{fill:#C7C3D1;}
</style>
<g>
	<polygon class="st0" points="0.6,119.8 170.6,217.9 170.6,198.3 0,99.8 	"/>
	<polygon class="st1" points="170.6,217.9 340.6,119.8 340.6,100.2 170.6,198.3 	"/>
	<g>
		
			<image style="overflow:visible;opacity:0.5;" width="371" height="227" xlink:href="8C5B855FB65E3B72.png"  transform="matrix(1 0 0 1 -15 61.94)">
		</image>
		<g>
			<polygon class="st2" points="0.2,99.8 170.8,198.3 340.8,100.2 170.8,2 			"/>
		</g>
	</g>
	<polygon class="st0" points="146.6,21.7 82.8,58.4 237.9,151 304.3,112.7 	"/>
	<path class="st3" d="M265.9,80.2c0-0.4,0.1-0.7,0.2-1c0,0,0-0.1,0-0.1c0.1-0.3,0.1-0.6,0.2-0.9l0.1-0.2c0.1-0.3,0.2-0.5,0.3-0.8
		v-0.1c0.1-0.3,0.3-0.5,0.5-0.8c0.2-0.3,0.5-0.7,0.8-0.9l0.2-0.2c0.3-0.3,0.6-0.5,0.9-0.7l-56.6,32.9c-0.3,0.2-0.7,0.4-0.9,0.7
		l-0.2,0.2c-0.3,0.3-0.6,0.6-0.8,1l0,0c-0.2,0.2-0.3,0.5-0.4,0.8l0,0c0,0,0,0.1,0,0.1c-0.1,0.2-0.1,0.3-0.2,0.5
		c0,0.1-0.1,0.2-0.1,0.3c0,0.1,0,0.1,0,0.2c0,0,0,0.1-0.1,0.2l-0.1,0.6c0,0.1,0,0.1,0,0.2v0.1c0,0.1,0,0.1,0,0.2s-0.1,0.3-0.1,0.5
		v0.3c0,0,0,0.1,0,0.1c0,0,0,0.1,0,0.1c0,0.2,0,0.3,0,0.5s0,0.4,0,0.5l0,0l56.6-32.9c0-0.4,0-0.8,0.1-1.2
		C266.1,80.3,266,80.2,265.9,80.2z"/>
	<path class="st3" d="M174.2,27.3c0-0.4,0.1-0.7,0.1-1v-0.1c0.1-0.3,0.1-0.6,0.2-0.9c0-0.1,0-0.1,0.1-0.2c0.1-0.3,0.2-0.5,0.3-0.8
		v-0.1c0.1-0.3,0.3-0.6,0.4-0.8c0.2-0.3,0.5-0.7,0.8-1l0.2-0.2c0.3-0.3,0.6-0.5,0.9-0.7l-56.5,32.9c-0.3,0.2-0.6,0.5-0.9,0.7
		l-0.2,0.2c-0.3,0.3-0.5,0.6-0.8,1l0,0c-0.2,0.2-0.3,0.5-0.4,0.8l0,0c0,0,0,0.1,0,0.1c-0.1,0.2-0.2,0.3-0.2,0.5l-0.1,0.3l-0.1,0.2
		c0,0,0,0.1,0,0.1c0,0.2-0.1,0.4-0.1,0.6s0,0.2,0,0.2c0,0,0,0.1,0,0.1c0,0.1,0,0.1,0,0.2c0,0.2-0.1,0.3-0.1,0.5s0,0.2,0,0.3
		c0,0,0,0.1,0,0.1c0,0,0,0.1,0,0.1s0,0.3,0,0.5s0,0.4,0,0.5l0,0l56.6-32.9c0-0.4,0-0.8,0.1-1.2C174.4,27.4,174.3,27.4,174.2,27.3z"
		/>
	<g>
		<path class="st4" d="M125.9,55.2c0.1-0.1,0.3-0.2,0.4-0.2h0.1l0.1-0.1l0.2-0.1c0.1,0,0.2,0,0.2-0.1h0.2h0.1l0.5-0.1h0.7h0.3h0.2
			h0.2l0.4,0.1h0.2l0.4,0.1h0.1c0.2,0.1,0.4,0.1,0.5,0.2l0.2,0.1l0.2,0.1c0.3,0.1,0.5,0.3,0.8,0.4c0.3,0.2,0.6,0.3,0.8,0.5l0.3,0.2
			c0.2,0.1,0.4,0.3,0.6,0.4L134,57l0.5,0.4l0.3,0.3L135,58c0.1,0.1,0.1,0.1,0.2,0.2c0.2,0.2,0.4,0.4,0.6,0.6L136,59l0.1,0.2
			c0.1,0.1,0.2,0.3,0.4,0.4l0.2,0.3l0.2,0.2l0.2,0.3c0.1,0.1,0.1,0.2,0.2,0.2s0.2,0.3,0.3,0.4l0.2,0.2c0,0,0,0.1,0.1,0.1
			c0.2,0.2,0.3,0.5,0.5,0.7l0,0l0.1,0.2l0.3,0.5l0.1,0.2c0,0.1,0.1,0.2,0.1,0.3l0.1,0.2l0.3,0.6c0,0,0,0.1,0.1,0.1l0,0l0.3,0.8
			c0,0.1,0,0.1,0.1,0.2s0.1,0.2,0.1,0.3s0.1,0.3,0.1,0.4s0.1,0.2,0.1,0.3l0.1,0.4l0.1,0.2c0,0.1,0.1,0.3,0.1,0.4l0.1,0.4
			c0,0,0,0.1,0,0.2c0,0.1,0,0.2,0.1,0.3s0.1,0.5,0.1,0.7c0,0.1,0,0.1,0,0.2s0,0.3,0.1,0.4v0.3c0,0.3,0,0.7,0,1
			c0,2.8-0.9,4.7-2.5,5.7l-5.3,3.3c1.6-0.9,2.5-2.9,2.5-5.7c0-0.3,0-0.6-0.1-1v-0.3l-0.1-0.6c0-0.2-0.1-0.5-0.1-0.7
			s-0.1-0.3-0.1-0.5s-0.1-0.3-0.1-0.4s-0.1-0.4-0.2-0.6l-0.1-0.4l-0.2-0.7l-0.1-0.3c-0.1-0.3-0.3-0.6-0.4-1v-0.1
			c-0.1-0.3-0.3-0.6-0.4-0.8l-0.1-0.3c-0.1-0.3-0.3-0.5-0.4-0.8l-0.1-0.2c-0.2-0.3-0.4-0.6-0.6-0.9l-0.2-0.2
			c-0.1-0.2-0.3-0.4-0.4-0.6l-0.2-0.3l-0.4-0.5c-0.1-0.1-0.2-0.3-0.4-0.4l-0.3-0.4c-0.2-0.2-0.4-0.4-0.6-0.6l-0.4-0.4l-0.3-0.3
			c-0.2-0.1-0.3-0.3-0.5-0.4l-0.3-0.2l-0.6-0.4l-0.3-0.2c-0.3-0.2-0.6-0.4-0.8-0.5c-0.3-0.2-0.5-0.3-0.8-0.4l-0.2-0.1l-0.8-0.3l0,0
			c-0.2-0.1-0.4-0.1-0.6-0.2l-0.4-0.1l-0.5-0.1h-0.3h-0.7c-0.2,0-0.4,0-0.6,0.1h-0.2l-0.5,0.2H121c-0.2,0.1-0.4,0.2-0.6,0.3
			L125.9,55.2L125.9,55.2z"/>
		<path class="st5" d="M126.6,59c4.9,2.7,8.9,9.4,8.9,15s-3.9,7.8-8.7,5.1s-8.9-9.4-8.9-15S121.7,56.3,126.6,59z"/>
	</g>
	<g>
		<path class="st6" d="M126.6,63.8c2.7,1.7,4.4,4.6,4.6,7.8c0,2.9-2,4.1-4.5,2.7c-2.7-1.7-4.4-4.6-4.6-7.8
			C122.1,63.6,124.1,62.4,126.6,63.8z"/>
	</g>
	<g>
		<path class="st4" d="M218.3,107.6c0.1-0.1,0.3-0.2,0.4-0.2h0.1l0.1-0.1l0.2-0.1c0.1,0,0.2,0,0.2-0.1h0.1h0.1l0.5-0.1h0.7h0.3h0.2
			h0.2l0.4,0.1h0.2l0.4,0.1l0,0c0.2,0.1,0.4,0.1,0.5,0.2c0.1,0,0.1,0.1,0.2,0.1l0.2,0.1c0.3,0.1,0.5,0.3,0.8,0.4s0.6,0.3,0.8,0.5
			l0.3,0.2c0.2,0.1,0.4,0.3,0.6,0.4l0.3,0.2c0.2,0.1,0.3,0.3,0.5,0.4l0.3,0.3l0.2,0.2l0.2,0.2c0.2,0.2,0.4,0.4,0.6,0.6l0.2,0.2
			c0.1,0.1,0.1,0.1,0.1,0.2s0.2,0.3,0.4,0.4l0.2,0.3l0.2,0.2l0.2,0.3c0.1,0.1,0.1,0.2,0.2,0.2l0.3,0.4l0.2,0.2c0,0,0.1,0.1,0.1,0.1
			c0.2,0.2,0.3,0.5,0.5,0.7l0,0c0,0,0.1,0.1,0.1,0.2l0.3,0.5c0,0.1,0.1,0.2,0.1,0.2l0.1,0.3l0.1,0.2l0.3,0.6c0,0,0,0.1,0.1,0.1l0,0
			c0.1,0.3,0.2,0.5,0.3,0.8c0,0,0,0.1,0,0.1c0,0.1,0.1,0.2,0.1,0.3l0.1,0.4l0.1,0.3l0.1,0.4l0.1,0.2c0,0.1,0.1,0.3,0.1,0.4l0.1,0.4
			c0,0.1,0,0.1,0,0.2l0.1,0.3c0.1,0.2,0.1,0.5,0.1,0.7v0.2c0,0.1,0,0.3,0.1,0.4s0,0.2,0,0.3c0,0.3,0,0.7,0.1,1
			c0,2.8-0.9,4.7-2.5,5.7l-5.5,3.3c1.6-0.9,2.5-2.9,2.5-5.7c0-0.3,0-0.6-0.1-1V125c0-0.2,0-0.4-0.1-0.6s-0.1-0.5-0.1-0.7
			s-0.1-0.3-0.1-0.5l-0.1-0.4c-0.1-0.2-0.1-0.4-0.2-0.6l-0.1-0.4c-0.1-0.2-0.1-0.5-0.2-0.7s-0.1-0.2-0.1-0.3c-0.1-0.3-0.2-0.6-0.4-1
			v-0.1c-0.1-0.3-0.3-0.6-0.4-0.8l-0.1-0.3c-0.1-0.3-0.3-0.5-0.4-0.8l-0.1-0.2c-0.2-0.3-0.4-0.6-0.6-0.9c-0.1-0.1-0.1-0.2-0.2-0.2
			c-0.1-0.2-0.3-0.4-0.4-0.6l-0.2-0.3l-0.4-0.5c-0.1-0.1-0.2-0.3-0.4-0.4l-0.3-0.4c-0.2-0.2-0.4-0.4-0.6-0.6l-0.4-0.4l-0.3-0.3
			c-0.2-0.1-0.3-0.3-0.5-0.4l-0.3-0.2l-0.6-0.4l-0.3-0.2c-0.3-0.2-0.6-0.4-0.8-0.5c-0.3-0.2-0.6-0.3-0.8-0.4l-0.2-0.1l-0.8-0.3H217
			c-0.2-0.1-0.4-0.1-0.6-0.2l-0.4-0.1l-0.5-0.1h-0.3h-0.7c-0.2,0-0.4,0-0.6,0.1h-0.1c-0.2,0-0.3,0.1-0.5,0.2h-0.1
			c-0.2,0.1-0.4,0.2-0.6,0.3l5.5-3.3L218.3,107.6z"/>
		<path class="st5" d="M219,111.4c4.9,2.7,8.9,9.4,8.9,15s-3.9,7.9-8.7,5.1s-8.9-9.4-8.9-15S214.1,108.7,219,111.4z"/>
	</g>
	<g>
		<path class="st6" d="M219,116.2c2.7,1.7,4.4,4.6,4.6,7.8c0,2.9-2,4.1-4.5,2.7c-2.7-1.7-4.4-4.6-4.6-7.8
			C214.5,116,216.5,114.8,219,116.2z"/>
	</g>
	<polygon class="st7" points="101.1,37.9 157.7,5 171.1,0 114.5,32.9 	"/>
	<polygon class="st8" points="114.5,32.9 171.1,0 194.5,13.5 138,46.4 	"/>
	<polygon class="st7" points="138,46.4 194.5,13.5 221,6.5 164.4,39.4 	"/>
	<polygon class="st4" points="195.1,15 209.9,11.1 163.8,37.9 149.1,41.8 	"/>
	<polygon class="st8" points="164.4,39.4 221,6.5 257.7,27.7 201.1,60.6 	"/>
	<polygon class="st7" points="244,117.8 300.6,84.9 300.6,101.6 244,134.5 	"/>
	<polygon class="st9" points="201.1,60.6 257.7,27.7 300.6,84.9 244,117.8 	"/>
	<path class="st4" d="M270.8,50l-11.2-14.6c-1.5-2-4.3-2.5-6.4-1.3l-42.3,24.6c-2.4,1.4-3.2,4.5-1.8,6.8c0.1,0.2,0.2,0.3,0.3,0.5
		l11.2,14.6c1.5,2,4.3,2.5,6.4,1.3l42.3-24.6c2.4-1.4,3.2-4.5,1.8-6.8C271,50.3,270.9,50.2,270.8,50z"/>
	<path class="st10" d="M201.1,60.6l42.9,57.2v16.7l-12.4-7.2c0-7.1-5-15.7-11.1-19.3s-11.2-0.7-11.2,6.4l-69.3-40
		c0-7.1-5-15.7-11.1-19.3s-11.2-0.7-11.2,6.4L101.1,52V37.9l13.4-5L138,46.4l26.4-7L201.1,60.6z"/>
	<polygon class="st4" points="117.5,58.2 117.5,65.2 115.4,66.4 115.4,59.5 	"/>
	<path class="st5" d="M117.5,58.2l-2.2,1.2c-15.2-4.5-16-8.5-16.4-12.3c-0.2-2.2,0.6-4.3,2.2-5.8v4.9v0.5c0,1.9,1.7,3.9,4.4,5.5
		L117.5,58.2z"/>
	<polygon class="st3" points="115.4,59.5 115.4,66.4 104.2,61.1 103.9,61 103.7,60.8 103.4,60.7 103.2,60.6 103,60.4 102.7,60.3 
		102.5,60.1 102.3,59.9 102.1,59.8 101.8,59.6 101.6,59.4 101.4,59.2 101.2,59 101,58.8 100.8,58.6 100.7,58.4 100.5,58.2 
		100.3,57.9 100.2,57.7 100,57.4 99.8,57.2 99.7,56.9 99.6,56.7 99.5,56.4 99.4,56.1 99.3,55.8 99.2,55.5 99.1,55.2 99,54.8 
		99,54.5 98.9,54.2 98.9,54 98.9,53.7 98.9,53.5 98.9,46.6 98.9,46.8 98.9,47 98.9,47.2 99,47.5 99,47.9 99.1,48.2 99.2,48.5 
		99.3,48.8 99.4,49.1 99.5,49.4 99.6,49.7 99.7,50 99.8,50.2 100,50.5 100.2,50.7 100.3,51 100.5,51.2 100.7,51.4 100.8,51.6 
		101,51.8 101.2,52.1 101.4,52.2 101.6,52.4 101.8,52.6 102.1,52.8 102.3,53 102.5,53.1 102.7,53.3 103,53.4 103.2,53.6 103.4,53.7 
		103.7,53.9 103.9,54 104.2,54.1 	"/>
	<path class="st4" d="M177.4,69l-4.5-2.6c-0.5-0.4-0.8-0.9-0.8-1.6l0,0c0-0.6,0.4-0.9,0.8-0.6l4.5,2.6c0.5,0.4,0.8,0.9,0.8,1.6l0,0
		C178.2,69,177.9,69.2,177.4,69z"/>
	<path class="st3" d="M300,100.1v3.2l0,0l2.8-1.6l0.6-0.4l0.5-0.4l0.3-0.5l0.1-0.5v6.8l-0.1,0.5l-0.3,0.5l-0.5,0.5l-0.6,0.4
		l-2.8,1.6l0,0l-51.4,29.6l0,0l-1.8,1.1l-0.4,0.2l-0.4,0.2l-0.4,0.1l-0.4,0.1l-0.4,0.1l-0.4,0.1H244h-0.4h-0.8h-0.4l-0.4-0.1
		l-0.4-0.1l-0.4-0.1l-0.3-0.1l-0.3-0.2l-9.7-5.9l-0.5-0.4l-0.3-0.4l-0.2-0.5v-0.5v-6.8v0.5l0.2,0.5l0.3,0.4l0.5,0.4l9.7,5.9l0.3,0.1
		l0.3,0.1l0.4,0.1l0.4,0.1l0.4,0.1h0.4h0.4h0.4h0.4h0.4l0.4-0.1l0.4-0.1l0.4-0.1l0.4-0.1l0.4-0.2l0.4-0.2l1.8-1.1l0,0l50.2-29
		L300,100.1z M300,103.4v6.8l0,0V103.4z"/>
	<path class="st5" d="M231.4,124.8l12.6,7.6l56.4-32.5l0.2-3.2l2.6,1.5c1.6,0.9,1.4,2.5-0.4,3.6l-2.8,1.6l0,0L248.6,133l0,0l-1.8,1
		c-1.9,1.1-4.2,1.1-6.2,0.3l-9.7-5.9C229.4,127.5,229.6,125.9,231.4,124.8z"/>
	<polygon class="st5" points="209.2,114.4 139.9,74.4 137.1,76 206.4,116 	"/>
	<polygon class="st3" points="206.4,116 137.1,76 137.1,78.6 206.4,118.6 	"/>
	<polygon class="st4" points="209.2,114.4 209.2,117 206.4,118.6 206.4,116 	"/>
	<path class="st6" d="M138.6,41.7c0.7-0.5,1.7-0.6,2.5-0.2l0.9,0.5c0.7,0.5,1.1,1.4,1,2.2c-0.1,2.4-1.4,4.7-3.5,6
		c-0.7,0.5-1.7,0.6-2.5,0.2l-0.9-0.5c-0.7-0.5-1.1-1.4-1-2.2C135.3,45.2,136.6,43,138.6,41.7z"/>
	<path class="st11" d="M139.5,42.2c1.9-1.1,3.5-0.2,3.5,2c-0.1,2.4-1.4,4.7-3.5,6c-1.9,1.1-3.5,0.2-3.5-2
		C136.2,45.7,137.5,43.5,139.5,42.2z"/>
	<path class="st11" d="M139,46.5c-0.2-0.2-0.2-0.6,0-0.9c0.2-0.2,0.6-0.2,0.9,0c0.1,0.1,0.1,0.1,0.1,0.2c1.8,2.4,4.4,4,7.3,4.5
		c0.3,0.1,0.6,0.4,0.5,0.7c0,0,0,0,0,0c-0.1,0.3-0.4,0.6-0.7,0.5C143.9,51,141,49.2,139,46.5z"/>
	<path class="st4" d="M275,93.8c-0.4-0.5-1-0.6-1.5-0.3l-4.5,2.7c-0.6,0.3-0.8,1-0.4,1.6c0,0.1,0.1,0.1,0.1,0.1l0,0
		c0.4,0.5,1,0.6,1.5,0.3l4.4-2.7c0.6-0.3,0.8-1,0.5-1.6C275.1,93.9,275,93.9,275,93.8z"/>
	<path class="st12" d="M242.5,120.2h0.1c0.6,0.2,1.3,0,1.8-0.3l2.9-1.8c1.1-0.7,2.6-0.3,3.3,0.8c0.2,0.3,0.3,0.6,0.3,1l0.3,3.3
		c0.1,0.9-0.4,1.8-1.1,2.3l-4.9,3c-0.7,0.4-1.5,0.5-2.3,0.1l-2.1-1c-0.8-0.4-1.4-1.2-1.4-2.2v-3c0-1.3,1.1-2.4,2.4-2.3
		C242.1,120.2,242.3,120.2,242.5,120.2z"/>
	<path class="st12" d="M300.6,88.3c2.5,3,0.4,7.2,0.4,7.2l-3.4,2.3c-0.4,0.3-1.1,0.3-1.4-0.1c-0.2-0.2-0.2-0.5-0.2-0.7v-3.6
		c0-1.2,0.6-2.2,1.5-2.9L300.6,88.3z"/>
	<path class="st3" d="M280.5,101.4l-13.9,8c-0.5,0.3-0.8,0.9-0.8,1.5v3.3c0,0.9,0.8,1.7,1.7,1.7c0.3,0,0.6-0.1,0.8-0.2l13.9-8
		c0.5-0.3,0.8-0.9,0.9-1.5v-3.3c0-0.9-0.8-1.7-1.7-1.7C281.1,101.2,280.8,101.3,280.5,101.4z"/>
	<path class="st4" d="M179.5,51.8l-13.2-7.6c-1.5-0.9-3.3-1.1-5-0.7l-10.1,2.7c-0.7,0.2-1.1,1-0.9,1.7c0.1,0.3,0.3,0.6,0.6,0.8
		L179.5,65L179.5,51.8z"/>
	<path class="st4" d="M212.6,81.3l-12.9-17.2c-0.5-0.7-1.2-1.3-2-1.8L181.6,53v13.3l29.3,16.9c0.6,0.4,1.4,0.2,1.8-0.5
		C213,82.3,213,81.7,212.6,81.3z"/>
	
		<ellipse transform="matrix(2.792587e-03 -1 1 2.792587e-03 -10.1291 275.3008)" class="st0" cx="133" cy="142.7" rx="14.9" ry="25.7"/>
	<path class="st13" d="M137.4,143c0,0-0.2,4.6,0.2,5.8s4.3,2.9,7,1.9c2.1-0.7,4-2,5.3-3.7c0.9-1.3,4-2.9,4.7-4.4
		c1.1-2.3-1.1-4.2-3.1-4.6c-2.3-0.5-4.6,0.2-6.3,1.9C143.4,141.5,137.4,143,137.4,143z"/>
	<path class="st13" d="M116.3,136.8c0,0-0.2,4.6,0.2,5.8s4.3,2.9,7,1.9c2.1-0.6,4-2,5.3-3.7c0.9-1.3,4-2.9,4.7-4.4
		c1.2-2.3-1.1-4.2-3.1-4.6c-2.3-0.4-4.6,0.3-6.3,1.9C122.3,135.3,116.3,136.8,116.3,136.8z"/>
	<path class="st14" d="M115.9,78.1c-0.3,4.6-0.1,9.2,0.8,13.7c1.4,7.1,0.1,40.8-0.4,45.2c0,0,3.9,4.9,9.5,0c0-13,3.2-35.4,1.6-49.6
		S115.9,78.1,115.9,78.1z"/>
	<path class="st15" d="M116.3,80.2c0.2,0.8,1,8.3,12.4,12.8c6.2,3.2,7.2,8.8,7.6,13.7s0.5,36.1,0.9,37.1s4.4,4.6,9.3,0
		c0.5-13.4,0.7-59.3-0.2-64.9S115.6,77.7,116.3,80.2z"/>
	<path class="st16" d="M164.7,53.7c0.6-1,1.4-1.9,2.2-2.8c0.6-0.5,5.1-1.4,5.3-0.6s-2.3,1.9-2.3,1.9s4.8,1.1,5.8,2.5
		s-4.5,2.2-5.9,2.2c-1.1,0.1-2.1,0.4-3,0.9C166.7,57.7,163.2,56.8,164.7,53.7z"/>
	<path class="st17" d="M134.6,36.3c0,0,9.7,2.8,13.6,8.9c1.5,2.4,1.6,9.7-0.5,14.6s-0.1,22.1-0.8,25.6s-10.6,5.2-16.4,4.3
		s-14.8-4.9-14.6-11.6c0.6-19,0.6-28.4,1.4-32.9c0.6-2.7,1.9-5.3,3.8-7.3C121.1,38,124.4,34.2,134.6,36.3z"/>
	<path class="st18" d="M146.4,44.6c0,0,3.3,1.5,4.2,6.4s4.4,12.4,4.4,12.4l8.7-10.6c2.3,0.7,3.9,2.7,4,5.1c0,0-9.1,14.9-13.3,16.3
		s-12.2-16.5-13.6-20.3S142.5,42.8,146.4,44.6z"/>
	<path class="st19" d="M129,8c0,0,5.4-1.6,9.9,1.2s5.2,5.9,5,10.2c-0.2,5.4-0.2,11.5-2.1,15.6c-2.3,4.9-12,0.9-14.9-1
		s-6.1-9.5-5.7-15.5S123.6,9.1,129,8z"/>
	<path class="st19" d="M124.8,31.5c0,0,2.3,4.5,2.3,6.2s3.5,3.7,8.1,2.9s5-1.9,5-1.9c-1.3-1.8-2.2-3.9-2.9-6
		C136.6,30.1,124.8,31.5,124.8,31.5z"/>
	<path class="st18" d="M138.4,5.6c0,0,1.6,0.6,4.7,2.2l3.1,1.6l-2.5,2.2c1.4,0.7,2.5,2,3.1,3.5c0.3,1.2-2.2,0.6-2.2,0.6
		c0.3,1.1,0.4,2.2,0.3,3.4c0,2.5-2.2,0-5.3-0.6c0.9,0.6,1.2,3.1,1.2,3.1c-2.3-0.3-4.6-0.7-6.8-1.2c0.6,0.9,1.6,5.3,1.6,5.3
		s-2.8-3.4-3.4-1.2s0.9,5.9,2.8,5.6l1.2-0.3c-0.4,1.6-1.4,3.1-2.8,4c-2,0.9-4.1,1.5-6.2,1.9c0,0-5.9-6.2-6.5-7.5s-2.8-5.6-2.8-10
		c0.2-2.8,1.2-5.5,3.1-7.7c0.3-1.2,0.8-2.4,1.6-3.4c1.2-1.9,6.8-1.2,7.8-1.6c1.5-0.8,3-1.8,4.4-2.8l0.3,3.1l4.7-1.9L138.4,5.6z"/>
	<path class="st20" d="M180.1,49.8l-0.3-0.2l-4.2-2.5c-0.3-0.2-0.7-0.2-1,0l-10.3,6l-0.3,0.2v0.2l0,0c0,0.1,0.1,0.2,0.2,0.3l4.2,2.5
		c0.3,0.2,0.7,0.2,1,0l10.4-6c0.1-0.1,0.2-0.2,0.2-0.3l0,0L180.1,49.8z"/>
	<path class="st20" d="M175.6,47c-0.3-0.2-0.7-0.2-1,0l-10.3,6c-0.2,0.1-0.3,0.2-0.2,0.4c0,0.1,0.1,0.2,0.2,0.2l4.2,2.5
		c0.3,0.2,0.7,0.2,1,0l10.4-6c0.2-0.1,0.3-0.2,0.2-0.4c0-0.1-0.1-0.2-0.2-0.2L175.6,47z"/>
	<path class="st6" d="M175.4,47.5c-0.3-0.1-0.6-0.1-0.9,0l-8.8,5.1c-0.2,0.1-0.2,0.4,0,0.5l3.5,2.1c0.3,0.1,0.6,0.1,0.9,0l8.8-5.1
		c0.1-0.1,0.2-0.2,0.1-0.4c0-0.1-0.1-0.1-0.1-0.1L175.4,47.5z"/>
	<path class="st21" d="M166,54.3c0,0.2,0.3,0.3,0.6,0.3s0.6-0.1,0.6-0.3s-0.3-0.3-0.6-0.3S166,54.1,166,54.3z"/>
	<path class="st22" d="M177.2,48.4c0,0.1,0.1,0.1,0.3,0.1s0.3-0.1,0.3-0.1s-0.1-0.1-0.3-0.1S177.2,48.3,177.2,48.4z"/>
</g>
</svg>
