<svg xmlns="http://www.w3.org/2000/svg" xmlns:xlink="http://www.w3.org/1999/xlink" viewBox="0 0 25 25"><defs><style>.cls-1{isolation:isolate;}.cls-2{mix-blend-mode:multiply;}.cls-3{fill:#fff;}.cls-4{fill:url(#linear-gradient);}.cls-5{fill:url(#linear-gradient-2);}.cls-6{fill:url(#linear-gradient-3);}.cls-7{fill:url(#linear-gradient-4);}.cls-8{fill:url(#linear-gradient-5);}.cls-9{fill:url(#linear-gradient-6);}.cls-10{fill:url(#linear-gradient-7);}.cls-11{fill:url(#linear-gradient-8);}.cls-12{fill:url(#linear-gradient-9);}.cls-13{fill:url(#linear-gradient-10);}.cls-14{fill:url(#linear-gradient-11);}.cls-15{fill:url(#linear-gradient-12);}.cls-16{fill:url(#linear-gradient-13);}.cls-17{fill:url(#linear-gradient-14);}.cls-18{fill:url(#linear-gradient-15);}.cls-19{fill:url(#linear-gradient-16);}.cls-20{fill:url(#linear-gradient-17);}.cls-21{fill:url(#linear-gradient-18);}.cls-22{fill:url(#linear-gradient-19);}.cls-23{fill:url(#linear-gradient-20);}.cls-24{fill:url(#linear-gradient-21);}.cls-25{fill:url(#linear-gradient-22);}.cls-26{fill:url(#linear-gradient-23);}.cls-27{fill:url(#linear-gradient-24);}.cls-28{fill:url(#linear-gradient-25);}.cls-29{fill:url(#linear-gradient-26);}.cls-30{fill:url(#linear-gradient-27);}.cls-31{fill:url(#linear-gradient-28);}.cls-32{fill:url(#linear-gradient-29);}.cls-33{fill:url(#linear-gradient-30);}.cls-34{fill:url(#linear-gradient-31);}.cls-35{fill:url(#linear-gradient-32);}.cls-36{fill:url(#linear-gradient-33);}.cls-37{fill:url(#linear-gradient-34);}.cls-38{fill:url(#linear-gradient-35);}.cls-39{fill:url(#linear-gradient-36);}.cls-40{fill:url(#linear-gradient-37);}.cls-41{fill:url(#linear-gradient-38);}.cls-42{fill:url(#linear-gradient-39);}.cls-43{fill:url(#linear-gradient-40);}.cls-44{fill:url(#linear-gradient-41);}.cls-45{fill:url(#linear-gradient-42);}.cls-46{fill:url(#linear-gradient-43);}.cls-47{fill:url(#linear-gradient-44);}.cls-48{fill:url(#linear-gradient-45);}.cls-49{fill:url(#linear-gradient-46);}.cls-50{fill:url(#linear-gradient-47);}.cls-51{fill:url(#linear-gradient-48);}.cls-52{fill:url(#linear-gradient-49);}.cls-53{fill:url(#linear-gradient-50);}.cls-54{fill:url(#linear-gradient-51);}.cls-55{fill:url(#linear-gradient-52);}.cls-56{fill:url(#linear-gradient-53);}.cls-57{fill:url(#linear-gradient-54);}.cls-58{fill:url(#linear-gradient-55);}.cls-59{fill:url(#linear-gradient-56);}.cls-60{fill:url(#linear-gradient-57);}.cls-61{fill:url(#linear-gradient-58);}.cls-62{fill:url(#linear-gradient-59);}.cls-63{fill:url(#linear-gradient-60);}.cls-64{fill:url(#linear-gradient-61);}.cls-65{fill:url(#linear-gradient-62);}.cls-66{fill:url(#linear-gradient-63);}.cls-67{fill:url(#linear-gradient-64);}.cls-68{fill:url(#linear-gradient-65);}.cls-69{fill:url(#linear-gradient-66);}.cls-70{fill:url(#linear-gradient-67);}.cls-71{fill:url(#linear-gradient-68);}.cls-72{fill:url(#linear-gradient-69);}.cls-73{fill:url(#linear-gradient-70);}.cls-74{fill:url(#linear-gradient-71);}.cls-75{fill:url(#linear-gradient-72);}.cls-76{fill:url(#linear-gradient-73);}.cls-77{fill:url(#linear-gradient-74);}.cls-78{fill:url(#linear-gradient-75);}.cls-79{fill:url(#linear-gradient-76);}.cls-80{fill:url(#linear-gradient-77);}.cls-81{fill:url(#linear-gradient-78);}.cls-82{fill:url(#linear-gradient-79);}.cls-83{fill:url(#linear-gradient-80);}.cls-84{fill:url(#linear-gradient-81);}.cls-85{fill:url(#linear-gradient-82);}.cls-86{fill:url(#linear-gradient-83);}.cls-87{fill:url(#linear-gradient-84);}.cls-88{fill:url(#linear-gradient-85);}.cls-89{fill:url(#linear-gradient-86);}.cls-90{fill:url(#linear-gradient-87);}.cls-91{fill:url(#linear-gradient-88);}.cls-92{fill:url(#linear-gradient-89);}.cls-93{fill:url(#linear-gradient-90);}.cls-94{fill:url(#linear-gradient-91);}</style><linearGradient id="linear-gradient" x1="-115.54" y1="104.39" x2="-115.52" y2="104.37" gradientTransform="matrix(0, -26, 153, 0, -15955.04, -3000.94)" gradientUnits="userSpaceOnUse"><stop offset="0" stop-color="#93a6ff"/><stop offset="1" stop-color="#8aa7ff"/></linearGradient><linearGradient id="linear-gradient-2" x1="-92.37" y1="86.41" x2="-92.34" y2="86.38" gradientTransform="translate(-4389.05 -11077.98) rotate(-90) scale(120 51)" gradientUnits="userSpaceOnUse"><stop offset="0" stop-color="#96a3ff"/><stop offset="1" stop-color="#9aa1ff"/></linearGradient><linearGradient id="linear-gradient-3" x1="-93.92" y1="104.39" x2="-93.89" y2="104.36" gradientTransform="translate(-15955.04 -10327.82) rotate(-90) scale(110 153)" gradientUnits="userSpaceOnUse"><stop offset="0" stop-color="#7bb9ff"/><stop offset="1" stop-color="#70bcff"/></linearGradient><linearGradient id="linear-gradient-4" x1="-92.08" y1="106.73" x2="-92.06" y2="106.7" gradientTransform="translate(-22930.06 -15744.84) rotate(-90) scale(171 215)" gradientUnits="userSpaceOnUse"><stop offset="0" stop-color="#3d93cd"/><stop offset="1" stop-color="#2472a5"/></linearGradient><linearGradient id="linear-gradient-5" x1="-87.62" y1="99.89" x2="-87.59" y2="99.86" gradientTransform="matrix(0, -177, 121, 0, -12061.15, -15489.96)" gradientUnits="userSpaceOnUse"><stop offset="0" stop-color="#1c6695"/><stop offset="1" stop-color="#10577f"/></linearGradient><linearGradient id="linear-gradient-6" x1="-88.28" y1="100.2" x2="-88.25" y2="100.17" gradientTransform="translate(-12400.21 -6954.92) rotate(-90) scale(79 124)" gradientUnits="userSpaceOnUse"><stop offset="0" stop-color="#155e89"/><stop offset="1" stop-color="#145c87"/></linearGradient><linearGradient id="linear-gradient-7" x1="-87.99" y1="100.2" x2="-87.96" y2="100.17" gradientTransform="translate(-12400.15 -9747.81) rotate(-90) scale(111 124)" gradientUnits="userSpaceOnUse"><stop offset="0" stop-color="#105680"/><stop offset="1" stop-color="#1f6b9c"/></linearGradient><linearGradient id="linear-gradient-8" x1="-89" y1="102.3" x2="-88.98" y2="102.27" gradientTransform="matrix(0, -216, 132, 0, -13483.9, -19213.94)" gradientUnits="userSpaceOnUse"><stop offset="0" stop-color="#faf6ff"/><stop offset="1" stop-color="#dac6ff"/></linearGradient><linearGradient id="linear-gradient-9" x1="-90.49" y1="103.88" x2="-90.47" y2="103.86" gradientTransform="translate(-16083.04 -11209.72) rotate(-90) scale(124 155)" gradientUnits="userSpaceOnUse"><stop offset="0" stop-color="#f6f0ff"/><stop offset="1" stop-color="#eee5ff"/></linearGradient><linearGradient id="linear-gradient-10" x1="-85.34" y1="106.95" x2="-85.31" y2="106.92" gradientTransform="matrix(0, -208, 214, 0, -22868.92, -17721.73)" gradientUnits="userSpaceOnUse"><stop offset="0" stop-color="#63bdff"/><stop offset="1" stop-color="#57b3f3"/></linearGradient><linearGradient id="linear-gradient-11" x1="-85.58" y1="104.9" x2="-85.56" y2="104.87" gradientTransform="matrix(0, -234, 172, 0, -18022.92, -19997.94)" gradientUnits="userSpaceOnUse"><stop offset="0" stop-color="#479fdb"/><stop offset="1" stop-color="#6abbff"/></linearGradient><linearGradient id="linear-gradient-12" x1="-86.3" y1="95.67" x2="-86.27" y2="95.64" gradientTransform="translate(-7158.96 -17407.96) rotate(-90) scale(202 75)" gradientUnits="userSpaceOnUse"><stop offset="0" stop-color="#99a4ff"/><stop offset="1" stop-color="#9aa1ff"/></linearGradient><linearGradient id="linear-gradient-13" x1="-92.09" y1="100.62" x2="-92.07" y2="100.59" gradientTransform="translate(-11151.96 -15744.96) rotate(-90) scale(171 111)" gradientUnits="userSpaceOnUse"><stop offset="0" stop-color="#388cc4"/><stop offset="1" stop-color="#2371a2"/></linearGradient><linearGradient id="linear-gradient-14" x1="-86.18" y1="104.89" x2="-86.16" y2="104.87" gradientTransform="translate(-18023.04 -14797.96) rotate(-90) scale(172)" gradientUnits="userSpaceOnUse"><stop offset="0" stop-color="#7fb6ff"/><stop offset="1" stop-color="#6cbbff"/></linearGradient><linearGradient id="linear-gradient-15" x1="-86.3" y1="102.59" x2="-86.27" y2="102.56" gradientTransform="translate(-13318.9 -17233.96) rotate(-90) scale(200 130)" gradientUnits="userSpaceOnUse"><stop offset="0" stop-color="#87aaff"/><stop offset="1" stop-color="#86aaff"/></linearGradient><linearGradient id="linear-gradient-16" x1="-86.7" y1="103.93" x2="-86.67" y2="103.9" gradientTransform="translate(-17333.04 -12895.96) rotate(-90) scale(149 167)" gradientUnits="userSpaceOnUse"><stop offset="0" stop-color="#4097d1"/><stop offset="1" stop-color="#3285ba"/></linearGradient><linearGradient id="linear-gradient-17" x1="-94.46" y1="100.48" x2="-94.43" y2="100.45" gradientTransform="translate(-10132.96 -9725.82) rotate(-90) scale(103 101)" gradientUnits="userSpaceOnUse"><stop offset="0" stop-color="#80b4ff"/><stop offset="1" stop-color="#60beff"/></linearGradient><linearGradient id="linear-gradient-18" x1="-93.28" y1="101.18" x2="-93.25" y2="101.15" gradientTransform="translate(-14038.04 -12963.96) rotate(-90) scale(139)" gradientUnits="userSpaceOnUse"><stop offset="0" stop-color="#2371a2"/><stop offset="1" stop-color="#2371a2"/></linearGradient><linearGradient id="linear-gradient-19" x1="-91.27" y1="104.73" x2="-91.25" y2="104.7" gradientTransform="translate(-13294.03 -12223.96) rotate(-90) scale(134 127)" gradientUnits="userSpaceOnUse"><stop offset="0" stop-color="#70bcff"/><stop offset="1" stop-color="#8ca5ff"/></linearGradient><linearGradient id="linear-gradient-20" x1="-87.26" y1="94.22" x2="-87.24" y2="94.2" gradientTransform="translate(-6859.96 -8705.98) rotate(-90) scale(100 73)" gradientUnits="userSpaceOnUse"><stop offset="0" stop-color="#74b9ff"/><stop offset="1" stop-color="#7cb7ff"/></linearGradient><linearGradient id="linear-gradient-21" x1="-87.27" y1="103.93" x2="-87.24" y2="103.9" gradientTransform="translate(-17333.04 -8705.92) rotate(-90) scale(100 167)" gradientUnits="userSpaceOnUse"><stop offset="0" stop-color="#56b1f1"/><stop offset="1" stop-color="#3083b8"/></linearGradient><linearGradient id="linear-gradient-22" x1="-87.75" y1="102.04" x2="-87.72" y2="102.01" gradientTransform="translate(-12736.21 -6297.92) rotate(-90) scale(72 125)" gradientUnits="userSpaceOnUse"><stop offset="0" stop-color="#94a3ff"/><stop offset="1" stop-color="#93a6ff"/></linearGradient><linearGradient id="linear-gradient-23" x1="-87.23" y1="102.03" x2="-87.2" y2="102" gradientTransform="translate(-12736.15 -21698.94) rotate(-90) scale(249 125)" gradientUnits="userSpaceOnUse"><stop offset="0" stop-color="#c9b2ff"/><stop offset="1" stop-color="#b3a9ff"/></linearGradient><linearGradient id="linear-gradient-24" x1="-88.27" y1="102.83" x2="-88.25" y2="102.8" gradientTransform="translate(-15299.04 -6954.92) rotate(-90) scale(79 149)" gradientUnits="userSpaceOnUse"><stop offset="0" stop-color="#1b6594"/><stop offset="1" stop-color="#3588c0"/></linearGradient><linearGradient id="linear-gradient-25" x1="-88.3" y1="98.59" x2="-88.26" y2="98.56" gradientTransform="translate(-10034.96 -8457.92) rotate(-90) scale(96 102)" gradientUnits="userSpaceOnUse"><stop offset="0" stop-color="#297aad"/><stop offset="1" stop-color="#3c91cb"/></linearGradient><linearGradient id="linear-gradient-26" x1="-87.63" y1="102.44" x2="-87.6" y2="102.41" gradientTransform="translate(-9624.97 -15314.96) rotate(-90) scale(175 94)" gradientUnits="userSpaceOnUse"><stop offset="0" stop-color="#ebe1ff"/><stop offset="1" stop-color="#ebe1ff"/></linearGradient><linearGradient id="linear-gradient-27" x1="-87.45" y1="104.85" x2="-87.42" y2="104.83" gradientTransform="translate(-14458.9 -21317.94) rotate(-90) scale(244 138)" gradientUnits="userSpaceOnUse"><stop offset="0" stop-color="#f2ebff"/><stop offset="1" stop-color="#efe7ff"/></linearGradient><linearGradient id="linear-gradient-28" x1="-89.91" y1="102.06" x2="-89.88" y2="102.04" gradientTransform="translate(-9793.97 -13121.96) rotate(-90) scale(146 96)" gradientUnits="userSpaceOnUse"><stop offset="0" stop-color="#c2afff"/><stop offset="1" stop-color="#d4bcff"/></linearGradient><linearGradient id="linear-gradient-29" x1="-92.6" y1="98.57" x2="-92.57" y2="98.54" gradientTransform="matrix(0, -99, 89, 0, -8756.96, -9158.92)" gradientUnits="userSpaceOnUse"><stop offset="0" stop-color="#f2ebff"/><stop offset="1" stop-color="#e2d2ff"/></linearGradient><linearGradient id="linear-gradient-30" x1="-97.04" y1="91.65" x2="-97.02" y2="91.62" gradientTransform="translate(-5301.08 -5718.87) rotate(-90) scale(59 58)" gradientUnits="userSpaceOnUse"><stop offset="0" stop-color="#e2d2ff"/><stop offset="1" stop-color="#e0cfff"/></linearGradient><linearGradient id="linear-gradient-31" x1="-93.38" y1="101.79" x2="-93.35" y2="101.77" gradientTransform="translate(-12299.15 -9424.92) rotate(-90) scale(101 121)" gradientUnits="userSpaceOnUse"><stop offset="0" stop-color="#d0b6ff"/><stop offset="1" stop-color="#ccb4ff"/></linearGradient><linearGradient id="linear-gradient-32" x1="-92.42" y1="103.8" x2="-92.39" y2="103.77" gradientTransform="translate(-14723.04 -11084.8) rotate(-90) scale(120 142)" gradientUnits="userSpaceOnUse"><stop offset="0" stop-color="#a0a1ff"/><stop offset="1" stop-color="#bcadff"/></linearGradient><linearGradient id="linear-gradient-33" x1="-91.42" y1="94.42" x2="-91.39" y2="94.39" gradientTransform="translate(-8376.96 -17091.96) rotate(-90) scale(187 89)" xlink:href="#linear-gradient-18"/><linearGradient id="linear-gradient-34" x1="-89.1" y1="97.9" x2="-89.07" y2="97.87" gradientTransform="translate(-10156.96 -9249.82) rotate(-90) scale(104)" gradientUnits="userSpaceOnUse"><stop offset="0" stop-color="#216d9e"/><stop offset="1" stop-color="#1e6a99"/></linearGradient><linearGradient id="linear-gradient-35" x1="-89.76" y1="93.19" x2="-89.73" y2="93.17" gradientTransform="translate(-6967.96 -10397.98) rotate(-90) scale(116 75)" gradientUnits="userSpaceOnUse"><stop offset="0" stop-color="#6bbcff"/><stop offset="1" stop-color="#59b6f6"/></linearGradient><linearGradient id="linear-gradient-36" x1="-92.37" y1="105.34" x2="-92.34" y2="105.32" gradientTransform="translate(-20730.04 -11077.8) rotate(-90) scale(120 197)" gradientUnits="userSpaceOnUse"><stop offset="0" stop-color="#93a6ff"/><stop offset="1" stop-color="#57b3f3"/></linearGradient><linearGradient id="linear-gradient-37" x1="-88.42" y1="103.39" x2="-88.4" y2="103.37" gradientTransform="translate(-16209.91 -26782.68) rotate(-90) scale(303 157)" gradientUnits="userSpaceOnUse"><stop offset="0" stop-color="#87aaff"/><stop offset="1" stop-color="#6ebaff"/></linearGradient><linearGradient id="linear-gradient-38" x1="-90.98" y1="72.14" x2="-90.96" y2="72.11" gradientTransform="translate(-1582.97 -8721.98) rotate(-90) scale(96 22)" gradientUnits="userSpaceOnUse"><stop offset="0" stop-color="#8ea7ff"/><stop offset="1" stop-color="#84b1ff"/></linearGradient><linearGradient id="linear-gradient-39" x1="-100.89" y1="99.2" x2="-100.86" y2="99.17" gradientTransform="translate(-6839.02 -3217.97) rotate(-90) scale(32 69)" gradientUnits="userSpaceOnUse"><stop offset="0" stop-color="#9aa1ff"/><stop offset="1" stop-color="#86aaff"/></linearGradient><linearGradient id="linear-gradient-40" x1="-87.67" y1="102.93" x2="-87.64" y2="102.91" gradientTransform="translate(-15006.91 -16287.96) rotate(-90) scale(186 146)" gradientUnits="userSpaceOnUse"><stop offset="0" stop-color="#6bbcff"/><stop offset="1" stop-color="#6dbbff"/></linearGradient><linearGradient id="linear-gradient-41" x1="-87.67" y1="96.08" x2="-87.64" y2="96.05" gradientTransform="translate(-7763.96 -16287.96) rotate(-90) scale(186 81)" gradientUnits="userSpaceOnUse"><stop offset="0" stop-color="#90a5ff"/><stop offset="1" stop-color="#d8c3ff"/></linearGradient><linearGradient id="linear-gradient-42" x1="-89.09" y1="103.84" x2="-89.06" y2="103.81" gradientTransform="matrix(0, -104, 162, 0, -16799.04, -9249.82)" gradientUnits="userSpaceOnUse"><stop offset="0" stop-color="#3a90c7"/><stop offset="1" stop-color="#68bcff"/></linearGradient><linearGradient id="linear-gradient-43" x1="-88.65" y1="93.47" x2="-88.63" y2="93.44" gradientTransform="translate(-6338.96 -16031.96) rotate(-90) scale(181 68)" gradientUnits="userSpaceOnUse"><stop offset="0" stop-color="#e6d8ff"/><stop offset="1" stop-color="#e5d7ff"/></linearGradient><linearGradient id="linear-gradient-44" x1="-91.5" y1="103.83" x2="-91.47" y2="103.8" gradientTransform="translate(-16799.04 -6207.93) rotate(-90) scale(68 162)" gradientUnits="userSpaceOnUse"><stop offset="0" stop-color="#4aa2df"/><stop offset="1" stop-color="#8ea7ff"/></linearGradient><linearGradient id="linear-gradient-45" x1="-89.36" y1="98.75" x2="-89.33" y2="98.72" gradientTransform="translate(-9854.97 -11601.97) rotate(-90) scale(130 100)" gradientUnits="userSpaceOnUse"><stop offset="0" stop-color="#87aaff"/><stop offset="1" stop-color="#a1a2ff"/></linearGradient><linearGradient id="linear-gradient-46" x1="-88.76" y1="103.89" x2="-88.73" y2="103.86" gradientTransform="translate(-16083.04 -15429.96) rotate(-90) scale(174 155)" gradientUnits="userSpaceOnUse"><stop offset="0" stop-color="#bcadff"/><stop offset="1" stop-color="#e2d2ff"/></linearGradient><linearGradient id="linear-gradient-47" x1="-92.1" y1="105.34" x2="-92.07" y2="105.31" gradientTransform="translate(-20730.04 -13165.85) rotate(-90) scale(143 197)" gradientUnits="userSpaceOnUse"><stop offset="0" stop-color="#2d7eb2"/><stop offset="1" stop-color="#4097d1"/></linearGradient><linearGradient id="linear-gradient-48" x1="-93.91" y1="103.48" x2="-93.89" y2="103.46" gradientTransform="translate(-15296.04 -10327.82) rotate(-90) scale(110 148)" gradientUnits="userSpaceOnUse"><stop offset="0" stop-color="#61beff"/><stop offset="1" stop-color="#3487bf"/></linearGradient><linearGradient id="linear-gradient-49" x1="-92.47" y1="103.48" x2="-92.44" y2="103.45" gradientTransform="translate(-15296.04 -14700.96) rotate(-90) scale(159 148)" gradientUnits="userSpaceOnUse"><stop offset="0" stop-color="#3487bf"/><stop offset="1" stop-color="#2371a2"/></linearGradient><linearGradient id="linear-gradient-50" x1="-92.47" y1="102.15" x2="-92.44" y2="102.12" gradientTransform="translate(-14177.04 -14700.96) rotate(-90) scale(159 139)" gradientUnits="userSpaceOnUse"><stop offset="0" stop-color="#2472a3"/><stop offset="1" stop-color="#2371a2"/></linearGradient><linearGradient id="linear-gradient-51" x1="-92.6" y1="105.24" x2="-92.58" y2="105.21" gradientTransform="translate(-17139.04 -13888.96) rotate(-90) scale(150 163)" gradientUnits="userSpaceOnUse"><stop offset="0" stop-color="#58b4f4"/><stop offset="1" stop-color="#3588c0"/></linearGradient><linearGradient id="linear-gradient-52" x1="-92.26" y1="105.24" x2="-92.24" y2="105.21" gradientTransform="translate(-17139.04 -15222.96) rotate(-90) scale(165 163)" gradientUnits="userSpaceOnUse"><stop offset="0" stop-color="#3b90ca"/><stop offset="1" stop-color="#1e6a99"/></linearGradient><linearGradient id="linear-gradient-53" x1="-86.7" y1="105.06" x2="-86.68" y2="105.03" gradientTransform="translate(-21301.05 -12895.84) rotate(-90) scale(149 203)" gradientUnits="userSpaceOnUse"><stop offset="0" stop-color="#2573a6"/><stop offset="1" stop-color="#0e537a"/></linearGradient><linearGradient id="linear-gradient-54" x1="-87.76" y1="96.88" x2="-87.73" y2="96.85" gradientTransform="translate(-9662.02 -5508.9) rotate(-90) scale(63 100)" gradientUnits="userSpaceOnUse"><stop offset="0" stop-color="#0f567e"/><stop offset="1" stop-color="#084a6c"/></linearGradient><linearGradient id="linear-gradient-55" x1="-100.85" y1="98.57" x2="-100.82" y2="98.54" gradientTransform="translate(-8757.02 -4025.95) rotate(-90) scale(40 89)" gradientUnits="userSpaceOnUse"><stop offset="0" stop-color="#f3edff"/><stop offset="1" stop-color="#e7daff"/></linearGradient><linearGradient id="linear-gradient-56" x1="-92.66" y1="95.65" x2="-92.63" y2="95.62" gradientTransform="translate(-7062.02 -7773.98) rotate(-90) scale(84 74)" gradientUnits="userSpaceOnUse"><stop offset="0" stop-color="#eee4ff"/><stop offset="1" stop-color="#f2eaff"/></linearGradient><linearGradient id="linear-gradient-57" x1="-91.12" y1="101.9" x2="-91.09" y2="101.87" gradientTransform="translate(-15157.04 -14754.96) rotate(-90) scale(162 149)" gradientUnits="userSpaceOnUse"><stop offset="0" stop-color="#2472a5"/><stop offset="1" stop-color="#1f6b9c"/></linearGradient><linearGradient id="linear-gradient-58" x1="-87.72" y1="101.99" x2="-87.69" y2="101.96" gradientTransform="translate(-15068.91 -34458.66) rotate(-90) scale(393 148)" gradientUnits="userSpaceOnUse"><stop offset="0" stop-color="#17618c"/><stop offset="1" stop-color="#1e6a9a"/></linearGradient><linearGradient id="linear-gradient-59" x1="-87.9" y1="105.69" x2="-87.87" y2="105.67" gradientTransform="matrix(0, -355, 223, 0, -23543.93, -31190.67)" gradientUnits="userSpaceOnUse"><stop offset="0" stop-color="#2d7eb2"/><stop offset="1" stop-color="#3184b9"/></linearGradient><linearGradient id="linear-gradient-60" x1="-88.43" y1="105.69" x2="-88.4" y2="105.67" gradientTransform="translate(-23543.93 -26782.68) rotate(-90) scale(303 223)" gradientUnits="userSpaceOnUse"><stop offset="0" stop-color="#58b4f4"/><stop offset="1" stop-color="#2472a3"/></linearGradient><linearGradient id="linear-gradient-61" x1="-87.43" y1="89.02" x2="-87.41" y2="88.99" gradientTransform="translate(-6115.96 -9771.98) rotate(-90) scale(112 69)" gradientUnits="userSpaceOnUse"><stop offset="0" stop-color="#054464"/><stop offset="1" stop-color="#054466"/></linearGradient><linearGradient id="linear-gradient-62" x1="-87.63" y1="93.76" x2="-87.6" y2="93.73" gradientTransform="matrix(0, -177, 86, 0, -8036.96, -15489.96)" gradientUnits="userSpaceOnUse"><stop offset="0" stop-color="#094a6e"/><stop offset="1" stop-color="#0a4e73"/></linearGradient><linearGradient id="linear-gradient-63" x1="-87.31" y1="93.76" x2="-87.28" y2="93.73" gradientTransform="translate(-8036.83 -45466.88) rotate(-90) scale(521 86)" gradientUnits="userSpaceOnUse"><stop offset="0" stop-color="#115781"/><stop offset="1" stop-color="#0e537a"/></linearGradient><linearGradient id="linear-gradient-64" x1="-86.38" y1="105.77" x2="-86.35" y2="105.74" gradientTransform="translate(-23877.06 -11723.85) rotate(-90) scale(136 226)" gradientUnits="userSpaceOnUse"><stop offset="0" stop-color="#1c6796"/><stop offset="1" stop-color="#03415f"/></linearGradient><linearGradient id="linear-gradient-65" x1="-85.76" y1="99.16" x2="-85.73" y2="99.12" gradientTransform="translate(-11672.91 -27583.68) rotate(-90) scale(322 118)" gradientUnits="userSpaceOnUse"><stop offset="0" stop-color="#044363"/><stop offset="1" stop-color="#044362"/></linearGradient><linearGradient id="linear-gradient-66" x1="-85.58" y1="104.79" x2="-85.55" y2="104.76" gradientTransform="translate(-18734.92 -19997.72) rotate(-90) scale(234 179)" gradientUnits="userSpaceOnUse"><stop offset="0" stop-color="#398fc6"/><stop offset="1" stop-color="#3a90c7"/></linearGradient><linearGradient id="linear-gradient-67" x1="-85.37" y1="103.32" x2="-85.34" y2="103.3" gradientTransform="translate(-17436.04 -10985.97) rotate(-90) scale(129 169)" gradientUnits="userSpaceOnUse"><stop offset="0" stop-color="#054466"/><stop offset="1" stop-color="#08496d"/></linearGradient><linearGradient id="linear-gradient-68" x1="-85.68" y1="105.77" x2="-85.65" y2="105.74" gradientTransform="translate(-23877.06 -11112.85) rotate(-90) scale(130 226)" gradientUnits="userSpaceOnUse"><stop offset="0" stop-color="#054464"/><stop offset="1" stop-color="#2573a6"/></linearGradient><linearGradient id="linear-gradient-69" x1="-88.65" y1="96.85" x2="-88.62" y2="96.82" gradientTransform="translate(-7731.96 -16031.96) rotate(-90) scale(181 80)" gradientUnits="userSpaceOnUse"><stop offset="0" stop-color="#eadfff"/><stop offset="1" stop-color="#f1e8ff"/></linearGradient><linearGradient id="linear-gradient-70" x1="-92.61" y1="96.08" x2="-92.58" y2="96.06" gradientTransform="translate(-6617.96 -13888.96) rotate(-90) scale(150 69)" gradientUnits="userSpaceOnUse"><stop offset="0" stop-color="#52aeeb"/><stop offset="1" stop-color="#3285ba"/></linearGradient><linearGradient id="linear-gradient-71" x1="-89.79" y1="102.47" x2="-89.77" y2="102.44" gradientTransform="translate(-10749.96 -13637.96) rotate(-90) scale(152 105)" gradientUnits="userSpaceOnUse"><stop offset="0" stop-color="#e1d1ff"/><stop offset="1" stop-color="#e1d1ff"/></linearGradient><linearGradient id="linear-gradient-72" x1="-90.13" y1="102.25" x2="-90.1" y2="102.22" gradientTransform="translate(-11540.96 -12245.96) rotate(-90) scale(136 113)" gradientUnits="userSpaceOnUse"><stop offset="0" stop-color="#f2eaff"/><stop offset="1" stop-color="#efe7ff"/></linearGradient><linearGradient id="linear-gradient-73" x1="-90.99" y1="103.36" x2="-90.96" y2="103.33" gradientTransform="translate(-10845.02 -6354.93) rotate(-90) scale(70 105)" gradientUnits="userSpaceOnUse"><stop offset="0" stop-color="#e5d7ff"/><stop offset="1" stop-color="#e9dcff"/></linearGradient><linearGradient id="linear-gradient-74" x1="-93.11" y1="102.15" x2="-93.08" y2="102.12" gradientTransform="matrix(0, -54, 89, 0, -9087.02, -5013.87)" gradientUnits="userSpaceOnUse"><stop offset="0" stop-color="#ceb5ff"/><stop offset="1" stop-color="#d2baff"/></linearGradient><linearGradient id="linear-gradient-75" x1="-91.03" y1="92.75" x2="-91.01" y2="92.72" gradientTransform="matrix(0, -86, 50, 0, -4630.05, -7815.98)" gradientUnits="userSpaceOnUse"><stop offset="0" stop-color="#eadeff"/><stop offset="1" stop-color="#e3d5ff"/></linearGradient><linearGradient id="linear-gradient-76" x1="-90.52" y1="102.16" x2="-90.49" y2="102.14" gradientTransform="matrix(0, -99, 89, 0, -9086.96, -8947.92)" gradientUnits="userSpaceOnUse"><stop offset="0" stop-color="#a5a2ff"/><stop offset="1" stop-color="#ccb4ff"/></linearGradient><linearGradient id="linear-gradient-77" x1="-89.95" y1="93.72" x2="-89.92" y2="93.69" gradientTransform="translate(-4866.05 -10600.98) rotate(-90) scale(118 52)" gradientUnits="userSpaceOnUse"><stop offset="0" stop-color="#ddcaff"/><stop offset="1" stop-color="#d8c3ff"/></linearGradient><linearGradient id="linear-gradient-78" x1="-85.23" y1="94.38" x2="-85.2" y2="94.36" gradientTransform="translate(-7434.96 -8241.98) rotate(-90) scale(97 79)" gradientUnits="userSpaceOnUse"><stop offset="0" stop-color="#2d7eb2"/><stop offset="1" stop-color="#4ca5e2"/></linearGradient><linearGradient id="linear-gradient-79" x1="-85.68" y1="90.37" x2="-85.65" y2="90.35" gradientTransform="translate(-5852.95 -11112.97) rotate(-90) scale(130 65)" gradientUnits="userSpaceOnUse"><stop offset="0" stop-color="#2a7bae"/><stop offset="1" stop-color="#48a0dc"/></linearGradient><linearGradient id="linear-gradient-80" x1="-86.22" y1="87.87" x2="-86.2" y2="87.84" gradientTransform="translate(-4901.05 -11357.96) rotate(-90) scale(132 56)" gradientUnits="userSpaceOnUse"><stop offset="0" stop-color="#5ab6f7"/><stop offset="1" stop-color="#5fbcfd"/></linearGradient><linearGradient id="linear-gradient-81" x1="-86.27" y1="90.89" x2="-86.25" y2="90.86" gradientTransform="translate(-5797.02 -9121.98) rotate(-90) scale(106 64)" gradientUnits="userSpaceOnUse"><stop offset="0" stop-color="#52aeeb"/><stop offset="1" stop-color="#5dbafa"/></linearGradient><linearGradient id="linear-gradient-82" x1="-94.44" y1="101.9" x2="-94.41" y2="101.87" gradientTransform="translate(-15157.04 -9250.92) rotate(-90) scale(98 149)" gradientUnits="userSpaceOnUse"><stop offset="0" stop-color="#2674a7"/><stop offset="1" stop-color="#2472a3"/></linearGradient><linearGradient id="linear-gradient-83" x1="-92.09" y1="100.39" x2="-92.07" y2="100.37" gradientTransform="translate(-12124.15 -13165.96) rotate(-90) scale(143 121)" gradientUnits="userSpaceOnUse"><stop offset="0" stop-color="#2777a9"/><stop offset="1" stop-color="#2573a6"/></linearGradient><linearGradient id="linear-gradient-84" x1="-101.87" y1="100.38" x2="-101.84" y2="100.35" gradientTransform="translate(-13123.04 -5600.84) rotate(-90) scale(55 131)" gradientUnits="userSpaceOnUse"><stop offset="0" stop-color="#2371a2"/><stop offset="1" stop-color="#2472a3"/></linearGradient><linearGradient id="linear-gradient-85" x1="-98.85" y1="100.39" x2="-98.82" y2="100.37" gradientTransform="translate(-12124.21 -6818.93) rotate(-90) scale(69 121)" gradientUnits="userSpaceOnUse"><stop offset="0" stop-color="#2573a6"/><stop offset="1" stop-color="#2472a5"/></linearGradient><linearGradient id="linear-gradient-86" x1="-98.85" y1="87.32" x2="-98.82" y2="87.29" gradientTransform="translate(-5302.07 -6818.98) rotate(-90) scale(69 61)" gradientUnits="userSpaceOnUse"><stop offset="0" stop-color="#2472a3"/><stop offset="1" stop-color="#2472a5"/></linearGradient><linearGradient id="linear-gradient-87" x1="-91.07" y1="99.41" x2="-91.04" y2="99.39" gradientTransform="translate(-8635.96 -13836.96) rotate(-90) scale(152 87)" gradientUnits="userSpaceOnUse"><stop offset="0" stop-color="#e7daff"/><stop offset="1" stop-color="#d6c1ff"/></linearGradient><linearGradient id="linear-gradient-88" x1="-93.61" y1="96.95" x2="-93.58" y2="96.93" gradientTransform="translate(-7067.96 -10573.98) rotate(-90) scale(113 73)" gradientUnits="userSpaceOnUse"><stop offset="0" stop-color="#84b1ff"/><stop offset="1" stop-color="#8ba8ff"/></linearGradient><linearGradient id="linear-gradient-89" x1="-86.42" y1="96.04" x2="-86.39" y2="96.01" gradientTransform="translate(-5946.99 -23653.94) rotate(-90) scale(274 62)" gradientUnits="userSpaceOnUse"><stop offset="0" stop-color="#95a4ff"/><stop offset="1" stop-color="#e5d7ff"/></linearGradient><linearGradient id="linear-gradient-90" x1="-86.29" y1="106.96" x2="-86.27" y2="106.93" gradientTransform="translate(-21910.92 -17407.82) rotate(-90) scale(202 205)" gradientUnits="userSpaceOnUse"><stop offset="0" stop-color="#98a3ff"/><stop offset="1" stop-color="#d6c0ff"/></linearGradient><linearGradient id="linear-gradient-91" x1="-111.6" y1="114.78" x2="-111.57" y2="114.75" gradientTransform="matrix(-35.47, 30.83, -102.99, -118.5, 7871.07, 17063.63)" gradientUnits="userSpaceOnUse"><stop offset="0" stop-color="#d5bfff"/><stop offset="1" stop-color="#e2d2ff"/></linearGradient></defs><title>tess</title><g class="cls-1"><g id="Layer_1" data-name="Layer 1"><g class="cls-2"><rect class="cls-3" width="25" height="25"/><polygon class="cls-4" points="12.29 2.69 16.79 2.85 16.47 3.29 12.29 2.69"/><polygon class="cls-5" points="16.79 2.85 17.97 5.64 16.47 3.29 16.79 2.85"/><polygon class="cls-6" points="12.29 2.69 15.2 0.29 16.79 2.85 12.29 2.69"/><polygon class="cls-7" points="14.91 0 15.38 0 15.2 0.29 14.91 0"/><polygon class="cls-8" points="24.48 14.26 24.98 18.38 21.41 15.79 24.48 14.26"/><polygon class="cls-3" points="0 16.99 0 16.01 4.1 16.21 0 16.99"/><polygon class="cls-9" points="24.98 18.38 22.8 18.59 21.33 16.75 24.98 18.38"/><polygon class="cls-10" points="21.41 15.79 24.98 18.38 21.33 16.75 21.41 15.79"/><polygon class="cls-11" points="17.97 5.64 19.68 10.67 15.79 7.79 17.97 5.64"/><polygon class="cls-12" points="15.79 7.79 19.68 10.67 15.11 9.65 15.79 7.79"/><polygon class="cls-3" points="6.48 25 4.62 25 7.16 24.78 6.48 25"/><polygon class="cls-13" points="14.35 25 13.5 25 14.05 24.36 14.35 25"/><polygon class="cls-3" points="14.05 24.36 13.5 25 7.3 25 7.16 24.78 14.05 24.36"/><polygon class="cls-14" points="19.12 23.43 18.27 25 14.35 25 14.05 24.36 19.12 23.43"/><polygon class="cls-15" points="16.26 19.71 14.05 24.36 14.73 19.66 16.26 19.71"/><polygon class="cls-3" points="3.69 9.65 4.9 7.25 5.72 9.95 3.69 9.65"/><polygon class="cls-3" points="3.69 9.65 0.39 6.57 4.9 7.25 3.69 9.65"/><polygon class="cls-16" points="15.38 0 15.46 0 15.2 0.29 15.38 0"/><polygon class="cls-3" points="4.9 7.25 0.39 6.57 8.64 4.2 4.9 7.25"/><polygon class="cls-17" points="19.12 23.43 14.05 24.36 17.88 20.36 19.12 23.43"/><polygon class="cls-18" points="17.88 20.36 14.05 24.36 16.26 19.71 17.88 20.36"/><polygon class="cls-19" points="22.8 18.59 19.77 22.06 17.88 20.36 22.8 18.59"/><polygon class="cls-20" points="12.23 0.96 15.2 0.29 12.29 2.69 12.23 0.96"/><polygon class="cls-3" points="0.39 6.57 6.5 0 7.28 0 8.64 4.2 0.39 6.57"/><polygon class="cls-3" points="6.32 0 6.5 0 0.39 6.57 6.32 0"/><polygon class="cls-21" points="23.16 0 24.52 0 24.36 0.22 23.16 0"/><polygon class="cls-3" points="7.3 25 7.08 25 7.16 24.78 7.3 25"/><polygon class="cls-3" points="7.08 25 6.48 25 7.16 24.78 7.08 25"/><polygon class="cls-3" points="4.1 16.21 0 16.01 0 14.96 3.66 13.14 4.1 16.21"/><polygon class="cls-3" points="4.1 16.21 3.66 13.14 4.46 14.33 4.1 16.21"/><polygon class="cls-22" points="3.28 6.61 7.02 3.56 6.93 6.68 3.28 6.61"/><polygon class="cls-3" points="8.55 7.32 8.64 4.2 12.7 6.22 8.55 7.32"/><polygon class="cls-3" points="5.72 9.95 4.9 7.25 8.55 7.32 5.72 9.95"/><polygon class="cls-23" points="17.88 20.36 16.26 19.71 18.41 18.03 17.88 20.36"/><polygon class="cls-24" points="18.41 18.03 22.8 18.59 17.88 20.36 18.41 18.03"/><polygon class="cls-25" points="16.26 19.71 14.73 19.66 18.41 18.03 16.26 19.71"/><polygon class="cls-26" points="18.41 18.03 14.73 19.66 16.03 13.86 18.41 18.03"/><polygon class="cls-27" points="21.33 16.75 22.8 18.59 18.41 18.03 21.33 16.75"/><polygon class="cls-28" points="21.33 16.75 18.41 18.03 21.41 15.79 21.33 16.75"/><polygon class="cls-3" points="6.87 18.4 0 17.46 0 16.99 4.1 16.21 6.87 18.4"/><polygon class="cls-29" points="4.86 19.09 2.09 16.9 2.44 15.01 4.86 19.09"/><polygon class="cls-3" points="7.55 12.72 6.87 18.4 4.46 14.33 7.55 12.72"/><polygon class="cls-30" points="10.93 13.72 6.87 18.4 7.55 12.72 10.93 13.72"/><polygon class="cls-31" points="1.46 3.63 4.28 1 2.99 4.4 1.46 3.63"/><polygon class="cls-32" points="14.41 5.48 15.79 7.79 13.17 6.85 14.41 5.48"/><polygon class="cls-33" points="13.17 6.85 12.7 6.22 14.41 5.48 13.17 6.85"/><polygon class="cls-34" points="16.47 3.29 17.97 5.64 14.41 5.48 16.47 3.29"/><polygon class="cls-35" points="14.41 5.48 12.29 2.69 16.47 3.29 14.41 5.48"/><polygon class="cls-36" points="24.52 0 25 0 25 0.49 24.36 0.22 24.52 0"/><polygon class="cls-37" points="21.89 13.37 24.48 14.26 21.41 15.79 21.89 13.37"/><polygon class="cls-38" points="19.68 10.67 21.89 13.37 20.06 12.12 19.68 10.67"/><polygon class="cls-3" points="3.45 11.88 0 14.48 0 8.17 0.39 6.57 3.45 11.88"/><polygon class="cls-3" points="3.66 13.14 0 14.96 0 14.48 3.45 11.88 3.66 13.14"/><polygon class="cls-3" points="3.45 11.88 0.39 6.57 3.69 9.65 3.45 11.88"/><polygon class="cls-39" points="16.79 2.85 22.59 3.62 17.97 5.64 16.79 2.85"/><polygon class="cls-40" points="22.59 3.62 19.68 10.67 17.97 5.64 22.59 3.62"/><polygon class="cls-41" points="4.1 10.39 3.45 11.88 3.69 9.65 4.1 10.39"/><polygon class="cls-42" points="4.1 10.39 3.69 9.65 5.72 9.95 4.1 10.39"/><polygon class="cls-43" points="21.41 15.79 18.41 18.03 17.12 13.7 21.41 15.79"/><polygon class="cls-44" points="17.12 13.7 18.41 18.03 16.03 13.86 17.12 13.7"/><polygon class="cls-45" points="17.12 13.7 21.89 13.37 21.41 15.79 17.12 13.7"/><polygon class="cls-46" points="15.11 9.65 17.12 13.7 16.03 13.86 15.11 9.65"/><polygon class="cls-47" points="20.06 12.12 21.89 13.37 17.12 13.7 20.06 12.12"/><polygon class="cls-48" points="17.12 13.7 19.68 10.67 20.06 12.12 17.12 13.7"/><polygon class="cls-49" points="15.11 9.65 19.68 10.67 17.12 13.7 15.11 9.65"/><polygon class="cls-50" points="19.56 0.29 22.59 3.62 16.79 2.85 19.56 0.29"/><polygon class="cls-51" points="15.2 0.29 19.56 0.29 16.79 2.85 15.2 0.29"/><polygon class="cls-52" points="15.2 0.29 15.46 0 19.48 0 19.56 0.29 15.2 0.29"/><polygon class="cls-53" points="19.48 0 21.75 0 19.56 0.29 19.48 0"/><polygon class="cls-54" points="12.23 0.96 11.72 0 14.71 0 15.2 0.29 12.23 0.96"/><polygon class="cls-55" points="14.71 0 14.91 0 15.2 0.29 14.71 0"/><polygon class="cls-56" points="22.8 18.59 25 19.53 25 20.12 19.77 22.06 22.8 18.59"/><polygon class="cls-57" points="24.98 18.38 25 18.42 25 19.53 22.8 18.59 24.98 18.38"/><polygon class="cls-58" points="13.17 6.85 15.79 7.79 13.61 7.69 13.17 6.85"/><polygon class="cls-59" points="15.79 7.79 15.11 9.65 13.61 7.69 15.79 7.79"/><polygon class="cls-60" points="25 2.37 25 4.6 22.59 3.62 25 2.37"/><polygon class="cls-61" points="21.89 13.37 25 7.47 25 11.55 24.48 14.26 21.89 13.37"/><polygon class="cls-62" points="19.68 10.67 25 6.16 25 7.47 21.89 13.37 19.68 10.67"/><polygon class="cls-63" points="22.59 3.62 25 4.6 25 6.16 19.68 10.67 22.59 3.62"/><polygon class="cls-64" points="25 18.37 25 18.42 24.98 18.38 25 18.37"/><polygon class="cls-65" points="24.48 14.26 25 14.87 25 18.37 24.98 18.38 24.48 14.26"/><polygon class="cls-66" points="25 11.55 25 14.87 24.48 14.26 25 11.55"/><polygon class="cls-67" points="25 20.12 25 22.81 19.77 22.06 25 20.12"/><polygon class="cls-68" points="25 25 24.63 25 25 24.59 25 25"/><polygon class="cls-69" points="21.33 25 18.27 25 19.12 23.43 21.33 25"/><polygon class="cls-70" points="25 24.59 24.63 25 21.65 25 25 23.6 25 24.59"/><polygon class="cls-71" points="25 22.81 25 23.6 21.65 25 21.4 25 19.77 22.06 25 22.81"/><polygon class="cls-3" points="0 6.05 0 1.41 4.62 0 6.32 0 0.39 6.57 0 6.05"/><polygon class="cls-3" points="0 0 4.62 0 0 1.41 0 0"/><polygon class="cls-3" points="0.39 6.57 0 8.17 0 6.05 0.39 6.57"/><polygon class="cls-72" points="13.67 9.93 15.11 9.65 16.03 13.86 13.67 9.93"/><polygon class="cls-3" points="10.2 0.57 12.23 0.96 12.29 2.69 10.2 0.57"/><polygon class="cls-73" points="10.2 0.57 10.23 0 11.72 0 12.23 0.96 10.2 0.57"/><polygon class="cls-3" points="8.71 0 9.48 0 10.2 0.57 8.71 0"/><polygon class="cls-3" points="9.48 0 10.23 0 10.2 0.57 9.48 0"/><polygon class="cls-3" points="10.34 10.86 8.55 7.32 13.61 7.69 10.34 10.86"/><polygon class="cls-3" points="10.93 13.72 7.55 12.72 10.34 10.86 10.93 13.72"/><polygon class="cls-3" points="10.34 10.86 7.55 12.72 7.25 10.72 10.34 10.86"/><polygon class="cls-74" points="6.81 9.84 8.11 6.44 9.9 9.98 6.81 9.84"/><polygon class="cls-75" points="13.67 9.93 10.34 10.86 13.61 7.69 13.67 9.93"/><polygon class="cls-3" points="4.46 14.33 3.66 13.14 6.07 12.7 4.46 14.33"/><polygon class="cls-76" points="4.46 14.33 6.07 12.7 7.55 12.72 4.46 14.33"/><polygon class="cls-77" points="2.24 13.63 2.03 12.37 4.65 13.19 2.24 13.63"/><polygon class="cls-78" points="7.55 12.72 6.07 12.7 7.25 10.72 7.55 12.72"/><polygon class="cls-79" points="6.07 12.7 3.45 11.88 4.1 10.39 6.07 12.7"/><polygon class="cls-80" points="7.25 10.72 6.07 12.7 5.72 9.95 7.25 10.72"/><polygon class="cls-3" points="6.07 12.7 4.1 10.39 5.72 9.95 6.07 12.7"/><polygon class="cls-3" points="4.62 25 0 25 0 23.35 7.16 24.78 4.62 25"/><polygon class="cls-3" points="7.16 24.78 0 23.35 0 22.03 6.87 18.4 7.16 24.78"/><polygon class="cls-3" points="0 22.03 0 17.46 6.87 18.4 0 22.03"/><polygon class="cls-81" points="19.53 22.82 21.37 25 21.33 25 19.12 23.43 19.53 22.82"/><polygon class="cls-82" points="19.77 22.06 21.4 25 21.37 25 19.53 22.82 19.77 22.06"/><polygon class="cls-83" points="19.53 22.82 19.12 23.43 17.88 20.36 19.53 22.82"/><polygon class="cls-84" points="19.77 22.06 19.53 22.82 17.88 20.36 19.77 22.06"/><polygon class="cls-85" points="23.12 1.5 25 1.42 25 2.37 22.59 3.62 23.12 1.5"/><polygon class="cls-86" points="23.12 1.5 22.59 3.62 19.56 0.29 23.12 1.5"/><polygon class="cls-87" points="24.36 0.22 25 0.49 25 1.42 23.12 1.5 24.36 0.22"/><polygon class="cls-88" points="19.56 0.29 21.75 0 22.6 0 23.12 1.5 19.56 0.29"/><polygon class="cls-89" points="23.12 1.5 22.6 0 23.16 0 24.36 0.22 23.12 1.5"/><polygon class="cls-90" points="12.7 6.22 10.14 3.2 12.29 2.69 12.7 6.22"/><polygon class="cls-3" points="8.64 4.2 7.28 0 7.57 0 10.14 3.2 8.64 4.2"/><polygon class="cls-91" points="7.88 3.2 7.94 0.57 10.03 2.69 7.88 3.2"/><polygon class="cls-3" points="10.14 3.2 7.57 0 8.71 0 10.2 0.57 10.14 3.2"/><polygon class="cls-3" points="14.05 24.36 7.16 24.78 8.7 19.82 14.05 24.36"/><polygon class="cls-92" points="5.69 24.14 5.4 17.77 7.22 19.18 5.69 24.14"/><polygon class="cls-93" points="14.73 19.66 14.05 24.36 8.7 19.82 14.73 19.66"/><polygon class="cls-3" points="8.7 19.82 6.87 18.4 10.93 13.72 8.7 19.82"/><polygon class="cls-94" points="11.12 24.73 7.57 22.31 7.74 21.54 11.12 24.73"/></g></g></g></svg>