<svg xmlns="http://www.w3.org/2000/svg" xmlns:xlink="http://www.w3.org/1999/xlink" viewBox="0 0 379.56 235.77"><defs><style>.cls-1{opacity:0.95;fill:url(#linear-gradient);}.cls-2{fill:url(#linear-gradient-2);}</style><linearGradient id="linear-gradient" x1="44.98" y1="46.99" x2="361.04" y2="201.73" gradientUnits="userSpaceOnUse"><stop offset="0" stop-color="#65a7db"/><stop offset="1" stop-color="#3060a4"/></linearGradient><linearGradient id="linear-gradient-2" x1="44.9" y1="46.95" x2="360.49" y2="201.46" xlink:href="#linear-gradient"/></defs><title>Asset 1</title><g id="Layer_2" data-name="Layer 2"><g id="Layer_1-2" data-name="Layer 1"><rect class="cls-1" width="379.56" height="235.77"/><polygon class="cls-2" points="160.65 48.37 177.16 31.85 379.56 234.25 379.56 202.74 222.35 45.52 238.87 29.01 379.56 169.7 379.56 145.07 285.12 50.63 301.64 34.12 379.56 112.04 379.56 0 0 0 0 3.31 205.55 208.86 189.03 225.38 0 36.35 0 59.76 148.42 208.18 131.9 224.69 0 92.79 0 116.65 91.53 208.18 75.01 224.69 0 149.68 0 235.77 348.05 235.77 160.65 48.37"/></g></g></svg>