<svg xmlns="http://www.w3.org/2000/svg" viewBox="0 0 44.49 75.42"><defs><style>.cls-1,.cls-2{fill:#fff;}.cls-2{opacity:0.2;isolation:isolate;}</style></defs><title>Asset 1</title><g id="Layer_2" data-name="Layer 2"><g id="Layer_1-2" data-name="Layer 1"><g id="Layer_2-2" data-name="Layer 2"><g id="Layer_1-2-2" data-name="Layer 1-2"><g id="Group_790" data-name="Group 790"><g id="Group_789" data-name="Group 789"><path id="Path_903" data-name="Path 903" class="cls-1" d="M16.49.82A22.54,22.54,0,0,0,.79,28.42c2.7,9.7,23.2,27.9,30.6,34.2a2.33,2.33,0,0,0,3.29-.19h0a2.41,2.41,0,0,0,.51-.91c3.1-9.3,11.4-35.4,8.7-45.1A22.22,22.22,0,0,0,16.67.77h-.18m8.2,29.7a8.2,8.2,0,1,1,5.7-10.1,8.34,8.34,0,0,1-5.7,10.1"/></g><ellipse id="Ellipse_67" data-name="Ellipse 67" class="cls-1" cx="31.19" cy="72.42" rx="13.3" ry="3"/><path id="Path_904" data-name="Path 904" class="cls-2" d="M25.09,30.32c-.1,0-.3.1-.4.1a8.2,8.2,0,1,1,3.1-14.1l2.9-14.7a22.86,22.86,0,0,0-14.2-.8A22.54,22.54,0,0,0,.79,28.42c1.8,6.5,11.4,16.6,19.8,24.6Z"/></g></g></g></g></g></svg>